<svg width="17" height="17" viewBox="0 0 17 17" fill="none" xmlns="http://www.w3.org/2000/svg">
<g clip-path="url(#clip0)">
<path d="M15.9026 11.9838L10.5524 9.49493C10.4297 9.44317 10.3266 9.35366 10.2582 9.23938C10.1898 9.1251 10.1596 8.99199 10.1719 8.85938V8.00071C10.1589 7.86799 10.1888 7.73458 10.2573 7.62015C10.3258 7.50572 10.4292 7.41633 10.5524 7.36515L15.9026 4.87626C16.1888 4.80249 16.4528 5.10826 16.4528 5.51182V11.3492C16.4528 11.7518 16.1862 12.0576 15.9026 11.9838Z" fill="#005BA1"/>
<path d="M11.8256 3.14746H1.08157C0.734489 3.14746 0.453125 3.42883 0.453125 3.77591V13.0044C0.453125 13.3514 0.734489 13.6328 1.08157 13.6328H11.8256C12.1727 13.6328 12.454 13.3514 12.454 13.0044V3.77591C12.454 3.42883 12.1727 3.14746 11.8256 3.14746Z" fill="url(#paint0_linear)"/>
<path d="M6.23058 4.30078H2.00836C1.88563 4.30078 1.78613 4.40027 1.78613 4.523V5.41189C1.78613 5.53462 1.88563 5.63411 2.00836 5.63411H6.23058C6.35331 5.63411 6.4528 5.53462 6.4528 5.41189V4.523C6.4528 4.40027 6.35331 4.30078 6.23058 4.30078Z" fill="#9CEBFF"/>
</g>
<defs>
<linearGradient id="paint0_linear" x1="6.56513" y1="-0.13165" x2="6.23713" y2="24.8897" gradientUnits="userSpaceOnUse">
<stop offset="0.176" stop-color="#83B9F9"/>
<stop offset="1" stop-color="#0078D4"/>
</linearGradient>
<clipPath id="clip0">
<rect width="16" height="16" fill="white" transform="translate(0.453125 0.75)"/>
</clipPath>
</defs>
</svg>
