<svg width="17" height="17" viewBox="0 0 17 17" fill="none" xmlns="http://www.w3.org/2000/svg">
<g clip-path="url(#clip0)">
<path d="M16.273 7.6189L8.81519 0.694454C8.71542 0.603885 8.5855 0.553711 8.45075 0.553711C8.316 0.553711 8.18608 0.603885 8.0863 0.694454L0.628527 7.6189C0.548973 7.69754 0.495232 7.79852 0.474444 7.90843C0.453657 8.01834 0.466807 8.13197 0.512148 8.23423C0.557489 8.33649 0.632873 8.42253 0.728284 8.48092C0.823695 8.53931 0.934615 8.56728 1.0463 8.56112H2.57519C2.64592 8.56112 2.71375 8.58922 2.76376 8.63923C2.81377 8.68924 2.84186 8.75706 2.84186 8.82779V15.4056C2.84186 15.5494 2.89899 15.6873 3.00067 15.789C3.10236 15.8907 3.24028 15.9478 3.38408 15.9478H13.5174C13.6612 15.9478 13.7991 15.8907 13.9008 15.789C14.0025 15.6873 14.0596 15.5494 14.0596 15.4056V8.82779C14.0596 8.75706 14.0877 8.68924 14.1377 8.63923C14.1878 8.58922 14.2556 8.56112 14.3263 8.56112H15.8552C15.9669 8.56728 16.0778 8.53931 16.1732 8.48092C16.2686 8.42253 16.344 8.33649 16.3894 8.23423C16.4347 8.13197 16.4478 8.01834 16.4271 7.90843C16.4063 7.79852 16.3525 7.69754 16.273 7.6189Z" fill="url(#paint0_linear)"/>
<path d="M6.73525 11.2725H10.1664C10.2481 11.2814 10.3232 11.3215 10.3762 11.3844C10.4291 11.4473 10.4559 11.5282 10.4508 11.6102V15.948H6.4508V11.6102C6.44574 11.5282 6.47246 11.4473 6.52542 11.3844C6.57838 11.3215 6.65352 11.2814 6.73525 11.2725Z" fill="#E6E6E6"/>
<path d="M1.0463 8.56112H1.51742L8.0863 2.46334C8.18608 2.37277 8.316 2.3226 8.45075 2.3226C8.5855 2.3226 8.71542 2.37277 8.81519 2.46334L15.3841 8.56112H15.8552C15.9669 8.56728 16.0778 8.53931 16.1732 8.48092C16.2686 8.42253 16.344 8.33649 16.3894 8.23423C16.4347 8.13197 16.4478 8.01834 16.4271 7.90843C16.4063 7.79852 16.3525 7.69754 16.273 7.6189L8.81519 0.694454C8.71542 0.603885 8.5855 0.553711 8.45075 0.553711C8.316 0.553711 8.18608 0.603885 8.0863 0.694454L0.628527 7.6189C0.548973 7.69754 0.495232 7.79852 0.474444 7.90843C0.453657 8.01834 0.466807 8.13197 0.512148 8.23423C0.557489 8.33649 0.632873 8.42253 0.728284 8.48092C0.823695 8.53931 0.934615 8.56728 1.0463 8.56112Z" fill="#005BA1"/>
</g>
<defs>
<linearGradient id="paint0_linear" x1="8.45075" y1="15.9478" x2="8.45075" y2="0.552233" gradientUnits="userSpaceOnUse">
<stop stop-color="#0078D4"/>
<stop offset="0.17" stop-color="#1C84DC"/>
<stop offset="0.38" stop-color="#3990E4"/>
<stop offset="0.59" stop-color="#4D99EA"/>
<stop offset="0.8" stop-color="#5A9EEE"/>
<stop offset="1" stop-color="#5EA0EF"/>
</linearGradient>
<clipPath id="clip0">
<rect width="16" height="16" fill="white" transform="translate(0.451172 0.25)"/>
</clipPath>
</defs>
</svg>
