<svg width="16" height="16" viewBox="0 0 16 16" fill="none" xmlns="http://www.w3.org/2000/svg">
<path d="M14 1.99643H2.00001C1.70546 1.99643 1.46667 2.23521 1.46667 2.52976V15.4666C1.46667 15.7612 1.70546 16 2.00001 16H14C14.2946 16 14.5333 15.7612 14.5333 15.4666V2.52976C14.5333 2.23521 14.2946 1.99643 14 1.99643Z" fill="url(#paint0_linear)"/>
<path d="M13.2026 2.85068H2.79731C2.50276 2.85068 2.26398 3.08946 2.26398 3.38401V14.6116C2.26398 14.9061 2.50276 15.1449 2.79731 15.1449H13.2026C13.4972 15.1449 13.736 14.9061 13.736 14.6116V3.38401C13.736 3.08946 13.4972 2.85068 13.2026 2.85068Z" fill="#5EA0EF"/>
<path d="M8.33601 9.07556V7.86578H7.66757V9.07556C7.66757 9.11092 7.65352 9.14484 7.62851 9.16984C7.60351 9.19485 7.56959 9.20889 7.53423 9.20889H5.06134C4.99062 9.20889 4.92279 9.23699 4.87278 9.287C4.82277 9.33701 4.79468 9.40484 4.79468 9.47556V11.4587H5.46312V10.0258C5.46307 9.99162 5.47614 9.95874 5.49963 9.93393C5.52311 9.90912 5.55523 9.89427 5.58934 9.89245H10.4462C10.4817 9.89245 10.5157 9.90647 10.5408 9.93145C10.566 9.95643 10.5802 9.99034 10.5805 10.0258V11.5031H11.2409V9.47645C11.2409 9.40694 11.2138 9.34017 11.1653 9.29036C11.1168 9.24055 11.0508 9.21164 10.9813 9.20978H8.47023C8.43479 9.20978 8.40078 9.19577 8.37564 9.17079C8.35049 9.14581 8.33625 9.11189 8.33601 9.07645V9.07556Z" fill="#9CEBFF"/>
<path d="M9.22755 4.9911H6.73243C6.65883 4.99108 6.58812 5.01976 6.53534 5.07105C6.48255 5.12234 6.45185 5.1922 6.44977 5.26577V7.76177C6.44977 7.83462 6.47871 7.90448 6.53022 7.95599C6.58173 8.0075 6.65159 8.03644 6.72443 8.03644H9.22755C9.30027 8.04031 9.37156 8.01515 9.42573 7.96647C9.47991 7.9178 9.51253 7.84961 9.51644 7.77688C9.51686 7.77185 9.51686 7.7668 9.51644 7.76177V5.26577C9.51434 5.19095 9.48266 5.12002 9.42833 5.06853C9.37401 5.01704 9.30148 4.98919 9.22666 4.9911H9.22755ZM8.99021 7.34577C8.98815 7.39364 8.96767 7.43887 8.93305 7.47199C8.89843 7.50512 8.85235 7.52359 8.80443 7.52355H7.14755C7.09972 7.52358 7.05374 7.50508 7.01926 7.47193C6.98478 7.43878 6.9645 7.39356 6.96266 7.34577V5.68888C6.96266 5.63985 6.98214 5.59282 7.01681 5.55815C7.05148 5.52347 7.09851 5.50399 7.14755 5.50399H8.77421C8.79857 5.50388 8.8227 5.50857 8.84524 5.51781C8.86777 5.52705 8.88826 5.54065 8.90552 5.55783C8.92279 5.57501 8.93648 5.59543 8.94583 5.61792C8.95518 5.64041 8.95999 5.66453 8.95999 5.68888L8.99021 7.34577Z" fill="#C3F1FF"/>
<path d="M5.98845 11.4258H4.20711C4.09617 11.4258 4.00623 11.5157 4.00623 11.6267V13.408C4.00623 13.519 4.09617 13.6089 4.20711 13.6089H5.98845C6.0994 13.6089 6.18934 13.519 6.18934 13.408V11.6267C6.18934 11.5157 6.0994 11.4258 5.98845 11.4258Z" fill="#C3F1FF"/>
<path d="M11.7814 11.4409H10C9.88907 11.4409 9.79913 11.5308 9.79913 11.6418V13.4231C9.79913 13.534 9.88907 13.624 10 13.624H11.7814C11.8923 13.624 11.9822 13.534 11.9822 13.4231V11.6418C11.9822 11.5308 11.8923 11.4409 11.7814 11.4409Z" fill="#C3F1FF"/>
<defs>
<linearGradient id="paint0_linear" x1="8.00001" y1="1.99643" x2="8.00001" y2="16" gradientUnits="userSpaceOnUse">
<stop stop-color="#5EA0EF"/>
<stop offset="1" stop-color="#0078D4"/>
</linearGradient>
</defs>
</svg>
