<svg width="16" height="16" viewBox="0 0 16 16" fill="none" xmlns="http://www.w3.org/2000/svg">
<path d="M1.07554 3.99911L8.00532 0L14.9333 3.99911V12.0009L8.00532 16L1.06665 12.0009V4.02667L1.07554 3.99911Z" fill="url(#paint0_linear)"/>
<path d="M1.08522 4.01318L7.99811 7.9883L7.99899 15.9874L1.07544 11.9972V4.04074L1.08522 4.01318Z" fill="#0078D4"/>
<path opacity="0.9" d="M4.58835 8.7378C4.58139 8.73264 4.57315 8.72949 4.56453 8.72871C4.5559 8.72793 4.54723 8.72953 4.53946 8.73336L3.03457 9.5858C2.99012 9.61069 3.02035 9.71469 3.08257 9.75025L3.88257 10.1316L3.93235 10.16C3.9526 10.1733 3.96944 10.1912 3.98149 10.2122C3.99354 10.2332 4.00046 10.2567 4.00168 10.2809L3.99368 12.0889C3.99739 12.1563 4.01675 12.222 4.05023 12.2806C4.08371 12.3392 4.13039 12.3892 4.18657 12.4267L4.78301 12.7822C4.89323 12.8454 4.98123 12.7965 4.98212 12.672L4.98835 10.856C4.98835 10.8116 5.01857 10.7938 5.05768 10.816L5.10746 10.8445L6.03901 11.4151C6.10123 11.4507 6.13235 11.3822 6.08879 11.3067L4.63723 8.78936C4.6255 8.76836 4.60869 8.75063 4.58835 8.7378Z" fill="white"/>
<path opacity="0.5" d="M3.58301 5.45157L10.3386 1.34668L12.4568 2.56712L5.70123 6.67468V7.97512C5.70133 7.99511 5.69525 8.01463 5.68381 8.03102C5.67238 8.04742 5.65616 8.05987 5.63738 8.06669C5.61859 8.0735 5.59816 8.07434 5.57888 8.06909C5.55959 8.06383 5.54241 8.05275 5.52967 8.03735L4.63367 6.97068C4.62167 6.95639 4.60586 6.9458 4.58808 6.94014C4.57031 6.93448 4.55128 6.93397 4.53323 6.93868L3.70034 7.11646C3.68625 7.1195 3.67165 7.11936 3.65762 7.11604C3.64359 7.11273 3.63047 7.10632 3.61923 7.0973C3.60799 7.08827 3.5989 7.07685 3.59264 7.06386C3.58637 7.05087 3.58308 7.03665 3.58301 7.02224V5.45157Z" fill="white"/>
<defs>
<linearGradient id="paint0_linear" x1="7.99998" y1="18.0373" x2="7.99998" y2="-2.96533" gradientUnits="userSpaceOnUse">
<stop stop-color="#0078D4"/>
<stop offset="1" stop-color="#83B9F9"/>
</linearGradient>
</defs>
</svg>
