<svg width="20" height="20" viewBox="0 0 20 20" fill="none" xmlns="http://www.w3.org/2000/svg">
<path d="M17.7782 10.824V9.0854L17.5037 8.9939L15.5821 8.35337L15.1246 7.16383L16.1312 5.15076L14.8501 3.86971L14.5756 3.96122L12.837 4.87625L11.6475 4.41873L10.824 2.22266H9.0854L8.9939 2.49717L8.35338 4.32723L7.16383 4.87625L5.15076 3.86971L3.86972 5.15076L3.96122 5.42527L4.87625 7.16383L4.41874 8.35337L2.22266 9.1769V10.9155L2.49717 11.007L4.41874 11.6475L4.87625 12.837L3.86972 14.8501L5.15076 16.1312L5.42527 16.0396L7.16383 15.1246L8.35338 15.5821L9.17691 17.6867H10.9155L11.007 17.4122L11.6475 15.4906L12.837 15.0331L14.8501 16.0396L16.1312 14.7586L16.0397 14.5756L15.1246 12.837L15.5821 11.6475L17.7782 10.824Z" fill="url(#paint0_linear)"/>
<path d="M13.0202 7.71288L12.2881 8.35341C12.5302 8.62005 12.7157 8.93302 12.8334 9.27339C12.9511 9.61376 12.9986 9.97446 12.9729 10.3337C12.9473 10.6929 12.849 11.0432 12.6842 11.3634C12.5193 11.6836 12.2912 11.967 12.0136 12.1965C11.7473 12.4392 11.4344 12.6253 11.094 12.7433C10.7535 12.8614 10.3926 12.9091 10.0332 12.8834C9.67378 12.8577 9.32333 12.7593 9.00312 12.594C8.68292 12.4287 8.39964 12.2001 8.1705 11.922C7.72875 11.4327 7.48422 10.7969 7.48422 10.1377C7.48422 9.4785 7.72875 8.84272 8.1705 8.35341H8.262L8.81102 8.81092H8.90252V8.71942L8.71952 6.88935C8.71952 6.79785 8.62801 6.79785 8.53651 6.79785L6.79795 7.07236C6.77368 7.07236 6.75041 7.082 6.73325 7.09916C6.71609 7.11632 6.70645 7.1396 6.70645 7.16386L7.25547 7.62138V7.71288C6.94053 8.07826 6.7014 8.50262 6.55198 8.96127C6.40256 9.41993 6.34585 9.90371 6.38513 10.3845C6.42442 10.8653 6.55892 11.3334 6.78081 11.7617C7.0027 12.19 7.30755 12.57 7.67762 12.8794C8.04769 13.1888 8.4756 13.4215 8.93645 13.564C9.3973 13.7065 9.88188 13.7559 10.362 13.7094C10.8421 13.6629 11.3082 13.5214 11.7332 13.2931C12.1581 13.0648 12.5334 12.7542 12.8372 12.3796C13.4757 11.7823 13.853 10.9574 13.8873 10.0838C13.9216 9.21018 13.61 8.35827 13.0202 7.71288Z" fill="white"/>
<defs>
<linearGradient id="paint0_linear" x1="10.0004" y1="17.7782" x2="10.0004" y2="2.22266" gradientUnits="userSpaceOnUse">
<stop stop-color="#32BEDD"/>
<stop offset="1" stop-color="#32D4F5"/>
</linearGradient>
</defs>
</svg>
