<svg width="120" height="82" viewBox="0 0 120 82" fill="none" xmlns="http://www.w3.org/2000/svg">
<path d="M38.0794 69.8622C38.3305 70.8427 39.6743 72.9375 43.9791 73.4872C47.036 73.8809 49.576 72.5438 52.0495 71.1101C52.2415 70.9987 52.4335 70.8873 52.6181 70.7759C52.8101 70.6644 53.0094 70.5456 53.2014 70.4342C54.9957 69.4016 89.8278 46.2876 90.6548 45.8048L85.5747 42.9375C84.9028 43.3386 52.8913 64.9447 50.8386 66.1926C50.1298 66.6235 49.3619 67.1137 47.9737 67.9457C47.9294 67.9754 47.8851 67.9977 47.8334 68.0274C46.4896 68.8074 43.0192 70.501 40.7745 70.4267C39.7186 70.397 38.168 69.8919 38.0794 69.8622Z" fill="#45CAF2"/>
<path d="M23.1733 33.2885L26.2618 31.5014C27.7466 30.6377 29.7363 30.5781 31.9932 31.4717L28.9048 33.2587C26.6478 32.3652 24.6582 32.4247 23.1733 33.2885Z" fill="#0078D4"/>
<path d="M57.2356 65.1448L54.1471 66.9318C55.5726 66.0979 56.4634 64.3704 56.4634 61.8983C56.4931 57.3116 53.4641 51.742 49.4551 48.6445L52.5435 46.8574C56.5525 49.955 59.5519 55.5246 59.5519 60.1113C59.5519 62.5833 58.6907 64.3108 57.2356 65.1448Z" fill="#0078D4"/>
<path d="M31.3105 30.2801L34.399 28.4931C36.3293 27.3613 39.091 27.54 42.1201 29.2973C47.9109 32.6628 52.5732 40.496 52.6029 46.8996L49.5145 48.6866C49.4848 42.3128 44.8224 34.4499 39.0316 31.0843C36.0026 29.327 33.2408 29.1483 31.3105 30.2801Z" fill="#0078D4"/>
<path d="M49.5144 48.6568C49.4847 42.283 44.8224 34.4201 39.0315 31.0545C34.3395 28.3441 30.3008 29.3866 28.9347 33.2287C24.0942 31.3225 20.4712 33.7946 20.4416 39.3046C20.4119 45.4401 24.9554 53.035 30.568 56.2815C30.865 56.4602 31.162 56.6091 31.4589 56.758L47.9108 66.3186C48.0593 66.408 48.2077 66.4676 48.3265 66.4973C52.8701 68.9098 56.4931 66.9143 56.4931 61.9404C56.5525 57.3239 53.5234 51.7543 49.5144 48.6568Z" fill="url(#paint0_linear)"/>
<path d="M29.6991 39.4066C29.6991 39.703 29.6471 39.8948 29.5604 39.9994C29.4738 40.104 29.3351 40.104 29.1618 39.9994C29.0058 39.9122 28.8845 39.7553 28.7978 39.5635C28.7112 39.3543 28.6592 39.1101 28.6592 38.8312C28.6592 38.5173 28.7112 38.3255 28.7978 38.2035C28.8845 38.0988 29.0232 38.0988 29.1965 38.2035C29.5431 38.4127 29.6991 38.7963 29.6991 39.4066ZM29.4565 39.2671C29.4565 39.0404 29.4391 38.8486 29.3871 38.7091C29.3525 38.5871 29.2831 38.4824 29.1965 38.4301C29.0058 38.3255 28.9018 38.4999 28.9018 38.9707C28.9018 39.1799 28.9192 39.3543 28.9712 39.4937C29.0232 39.6332 29.0925 39.7379 29.1791 39.7902C29.2658 39.8425 29.3351 39.825 29.3871 39.7379C29.4391 39.6507 29.4565 39.4937 29.4565 39.2671Z" fill="#32B0E7"/>
<path d="M30.704 39.0756V40.8715L30.4614 40.732V39.2848C30.3747 39.3023 30.2707 39.2848 30.1494 39.25V39.0059C30.2534 39.0233 30.3227 39.0407 30.3921 39.0407C30.4614 39.0407 30.5307 39.0233 30.6 39.0059L30.704 39.0756Z" fill="#32B0E7"/>
<path d="M32.3331 40.923C32.3331 41.2194 32.2811 41.4112 32.1945 41.5159C32.1078 41.6205 31.9692 41.6205 31.7958 41.5159C31.6398 41.4287 31.5012 41.2717 31.4145 41.0625C31.3279 40.8533 31.2759 40.6266 31.2759 40.3302C31.2759 40.0163 31.3279 39.8245 31.4145 39.7025C31.5012 39.5979 31.6398 39.5979 31.8132 39.7025C32.1598 39.9292 32.3331 40.3302 32.3331 40.923ZM32.0731 40.801C32.0731 40.5743 32.0558 40.3825 32.0038 40.243C31.9692 40.1035 31.8998 40.0163 31.7958 39.964C31.6052 39.8594 31.5185 40.0338 31.5185 40.5046C31.5185 40.7138 31.5359 40.8882 31.5879 41.0276C31.6398 41.1671 31.7092 41.2543 31.7958 41.3066C31.8825 41.3589 31.9518 41.3415 32.0038 41.2543C32.0558 41.1671 32.0731 41.0102 32.0731 40.801Z" fill="#32B0E7"/>
<path d="M33.3383 40.5923V42.3883L33.0957 42.2488V40.8016C33.009 40.819 32.905 40.819 32.7837 40.7841V40.54C32.8877 40.5575 32.957 40.5749 33.0263 40.5749C33.0957 40.5749 33.165 40.5575 33.2343 40.54L33.3383 40.5923Z" fill="#32B0E7"/>
<path d="M34.9503 42.4406C34.9503 42.737 34.8983 42.9288 34.8116 43.0334C34.725 43.1381 34.5863 43.1381 34.413 43.0334C34.257 42.9463 34.1184 42.7893 34.0317 42.5801C33.9451 42.3709 33.8931 42.1442 33.8931 41.8478C33.8931 41.5339 33.9451 41.3421 34.0317 41.2201C34.1184 41.1154 34.257 41.1154 34.4304 41.2201C34.7943 41.4467 34.9503 41.8478 34.9503 42.4406ZM34.7077 42.3185C34.7077 42.0919 34.6903 41.9001 34.6383 41.7606C34.6037 41.6211 34.5343 41.5339 34.4304 41.4816C34.2397 41.377 34.153 41.5514 34.153 42.0221C34.153 42.2314 34.1704 42.4057 34.2224 42.5452C34.2744 42.6847 34.3437 42.7719 34.4304 42.8242C34.517 42.8765 34.5863 42.8591 34.6383 42.7719C34.6903 42.6847 34.7077 42.5452 34.7077 42.3185Z" fill="#32B0E7"/>
<path d="M35.9555 42.1265V43.9225L35.7129 43.783V42.3358C35.6262 42.3532 35.5222 42.3532 35.4009 42.3183V42.0742C35.5049 42.0917 35.5742 42.1091 35.6435 42.1091C35.7129 42.1091 35.7822 42.0917 35.8515 42.0742L35.9555 42.1265Z" fill="#32B0E7"/>
<path d="M29.6986 42.4057C29.6986 42.7022 29.6466 42.894 29.56 42.9986C29.4733 43.1032 29.3346 43.1032 29.1613 42.9986C29.0053 42.9114 28.8667 42.7545 28.78 42.5452C28.7107 42.3709 28.6587 42.1268 28.6587 41.8478C28.6587 41.5339 28.7107 41.3421 28.7973 41.2201C28.884 41.1154 29.0227 41.1154 29.196 41.2201C29.5426 41.4119 29.6986 41.8129 29.6986 42.4057ZM29.456 42.2837C29.456 42.057 29.4386 41.8652 29.3866 41.7257C29.352 41.5862 29.2826 41.499 29.196 41.4467C29.0053 41.3421 28.9187 41.5165 28.9187 41.9873C28.9187 42.1965 28.936 42.3709 28.988 42.5104C29.04 42.6498 29.1093 42.737 29.196 42.7893C29.2826 42.8416 29.352 42.8242 29.404 42.737C29.456 42.6498 29.456 42.4929 29.456 42.2837Z" fill="#32B0E7"/>
<path d="M30.704 42.0914V43.8873L30.4614 43.7478V42.3006C30.3747 42.318 30.2707 42.318 30.1494 42.2832V42.0391C30.2534 42.0565 30.3227 42.0739 30.3921 42.0739C30.4614 42.0739 30.5307 42.0565 30.6 42.0391L30.704 42.0914Z" fill="#32B0E7"/>
<path d="M32.3331 43.9396C32.3331 44.236 32.2811 44.4278 32.1945 44.5325C32.1078 44.6371 31.9692 44.6371 31.7958 44.5325C31.6398 44.4453 31.5012 44.2884 31.4145 44.0791C31.3279 43.8699 31.2759 43.6432 31.2759 43.3468C31.2759 43.0329 31.3279 42.8411 31.4145 42.7191C31.5012 42.6145 31.6398 42.6145 31.8132 42.7191C32.1598 42.9458 32.3331 43.3294 32.3331 43.9396ZM32.0731 43.8001C32.0731 43.5735 32.0558 43.3817 32.0038 43.2422C31.9692 43.1027 31.8998 43.0155 31.7958 42.9632C31.6052 42.8586 31.5185 43.0329 31.5185 43.5037C31.5185 43.713 31.5359 43.8873 31.5879 44.0268C31.6398 44.1663 31.7092 44.2535 31.7958 44.3058C31.8825 44.3581 31.9518 44.3407 32.0038 44.2535C32.0558 44.1837 32.0731 44.0268 32.0731 43.8001Z" fill="#32B0E7"/>
<path d="M33.3383 43.6089V45.4049L33.0957 45.2654V43.8182C33.009 43.8356 32.905 43.8356 32.7837 43.8007V43.5566C32.8877 43.5741 32.957 43.5915 33.0263 43.5915C33.0957 43.5915 33.165 43.5741 33.2343 43.5566L33.3383 43.6089Z" fill="#32B0E7"/>
<path d="M29.6986 45.4222C29.6986 45.7186 29.6466 45.9104 29.56 46.015C29.4733 46.1196 29.3346 46.1196 29.1613 46.015C29.0053 45.9278 28.8667 45.7709 28.78 45.5617C28.7107 45.3873 28.6587 45.1432 28.6587 44.8468C28.6587 44.5329 28.7107 44.3411 28.7973 44.2191C28.884 44.1145 29.0227 44.1145 29.196 44.2191C29.5426 44.4283 29.6986 44.8294 29.6986 45.4222ZM29.456 45.3001C29.456 45.0735 29.4386 44.8817 29.3866 44.7422C29.352 44.6027 29.2826 44.5155 29.1786 44.4632C28.988 44.3586 28.9013 44.5329 28.9013 45.0037C28.9013 45.213 28.9187 45.3873 28.9707 45.5268C29.0227 45.6489 29.092 45.7535 29.1786 45.8058C29.2653 45.8581 29.3346 45.8407 29.3866 45.7535C29.4386 45.6663 29.456 45.5094 29.456 45.3001Z" fill="#32B0E7"/>
<path d="M30.704 45.0904V46.8863L30.4614 46.7468V45.2996C30.3747 45.3171 30.2707 45.3171 30.1494 45.2822V45.0381C30.2534 45.0555 30.3227 45.073 30.3921 45.073C30.4614 45.073 30.5307 45.0555 30.6 45.0381L30.704 45.0904Z" fill="#32B0E7"/>
<path d="M29.2309 47.2349V49.0309L28.9883 48.8914V47.4442C28.9016 47.4616 28.7976 47.4616 28.6763 47.4267V47.1826C28.7803 47.2001 28.8496 47.2175 28.9189 47.2175C28.9883 47.2175 29.0576 47.2001 29.1269 47.1826L29.2309 47.2349Z" fill="#32B0E7"/>
<path d="M37.8622 44.1234C37.8622 44.4198 37.8102 44.6116 37.7235 44.7162C37.6369 44.8208 37.4982 44.8208 37.3249 44.7162C37.1689 44.629 37.0476 44.4721 36.9609 44.2803C36.8743 44.0711 36.8223 43.8269 36.8223 43.548C36.8223 43.2341 36.8743 43.0423 36.9609 42.9203C37.0476 42.8156 37.1862 42.8156 37.3596 42.9203C37.7062 43.1295 37.8622 43.5131 37.8622 44.1234ZM37.6195 43.9839C37.6195 43.7572 37.6022 43.5654 37.5502 43.4259C37.5155 43.3039 37.4462 43.1992 37.3596 43.1469C37.1689 43.0423 37.0649 43.2167 37.0649 43.6875C37.0649 43.8967 37.0822 44.0711 37.1342 44.2105C37.1862 44.35 37.2556 44.4547 37.3422 44.507C37.4289 44.5593 37.4982 44.5418 37.5502 44.4547C37.6022 44.3675 37.6195 44.2105 37.6195 43.9839Z" fill="#32B0E7"/>
<path d="M38.8676 43.7924V45.5883L38.625 45.4489V44.0016C38.5383 44.0191 38.4343 44.0016 38.313 43.9668V43.7227C38.417 43.7401 38.4863 43.7575 38.5556 43.7575C38.625 43.7575 38.6943 43.7401 38.7636 43.7227L38.8676 43.7924Z" fill="#32B0E7"/>
<path d="M40.4967 45.6398C40.4967 45.9362 40.4447 46.128 40.358 46.2327C40.2714 46.3373 40.1327 46.3373 39.9594 46.2327C39.8034 46.1455 39.6648 45.9885 39.5781 45.7793C39.4914 45.5701 39.4395 45.3434 39.4395 45.047C39.4395 44.7331 39.4914 44.5413 39.5781 44.4193C39.6648 44.3147 39.8034 44.3147 39.9767 44.4193C40.3234 44.646 40.4967 45.047 40.4967 45.6398ZM40.2367 45.5178C40.2367 45.2911 40.2194 45.0993 40.1674 44.9598C40.1327 44.8203 40.0634 44.7331 39.9594 44.6808C39.7688 44.5762 39.6821 44.7506 39.6821 45.2214C39.6821 45.4306 39.6994 45.605 39.7514 45.7444C39.8034 45.8839 39.8727 45.9711 39.9594 46.0234C40.0461 46.0757 40.1154 46.0583 40.1674 45.9711C40.2194 45.8839 40.2367 45.727 40.2367 45.5178Z" fill="#32B0E7"/>
<path d="M41.5019 45.3091V47.1051L41.2592 46.9656V45.5184C41.1726 45.5358 41.0686 45.5358 40.9473 45.5009V45.2568C41.0513 45.2743 41.1206 45.2917 41.1899 45.2917C41.2592 45.2917 41.3286 45.2743 41.3979 45.2568L41.5019 45.3091Z" fill="#32B0E7"/>
<path d="M43.1139 47.1574C43.1139 47.4538 43.0619 47.6456 42.9752 47.7502C42.8886 47.8549 42.7499 47.8549 42.5766 47.7502C42.4206 47.6631 42.282 47.5061 42.1953 47.2969C42.1086 47.0877 42.0566 46.861 42.0566 46.5646C42.0566 46.2507 42.1086 46.0589 42.1953 45.9369C42.282 45.8322 42.4206 45.8322 42.5939 45.9369C42.9579 46.1635 43.1139 46.5646 43.1139 47.1574ZM42.8712 47.0353C42.8712 46.8087 42.8539 46.6169 42.8019 46.4774C42.7673 46.3379 42.6979 46.2507 42.5939 46.1984C42.4033 46.0938 42.3166 46.2682 42.3166 46.7389C42.3166 46.9482 42.334 47.1225 42.3859 47.262C42.4379 47.4015 42.5073 47.4887 42.5939 47.541C42.6806 47.5933 42.7499 47.5759 42.8019 47.4887C42.8539 47.4015 42.8712 47.262 42.8712 47.0353Z" fill="#32B0E7"/>
<path d="M44.1191 46.8433V48.6393L43.8764 48.4998V47.0526C43.7898 47.07 43.6858 47.07 43.5645 47.0351V46.791C43.6684 46.8085 43.7378 46.8259 43.8071 46.8259C43.8764 46.8259 43.9458 46.8085 44.0151 46.791L44.1191 46.8433Z" fill="#32B0E7"/>
<path d="M37.8622 47.1225C37.8622 47.4189 37.8102 47.6107 37.7235 47.7154C37.6369 47.82 37.4982 47.82 37.3249 47.7154C37.1689 47.6282 37.0302 47.4713 36.9436 47.262C36.8743 47.0877 36.8223 46.8435 36.8223 46.5646C36.8223 46.2507 36.8743 46.0589 36.9609 45.9369C37.0476 45.8322 37.1862 45.8322 37.3596 45.9369C37.7062 46.1287 37.8622 46.5297 37.8622 47.1225ZM37.6195 47.0005C37.6195 46.7738 37.6022 46.582 37.5502 46.4425C37.5155 46.303 37.4462 46.2158 37.3596 46.1635C37.1689 46.0589 37.0822 46.2333 37.0822 46.7041C37.0822 46.9133 37.0996 47.0877 37.1516 47.2271C37.2036 47.3666 37.2729 47.4538 37.3596 47.5061C37.4462 47.5584 37.5155 47.541 37.5675 47.4538C37.6195 47.3666 37.6195 47.2097 37.6195 47.0005Z" fill="#32B0E7"/>
<path d="M38.8676 46.8082V48.6041L38.625 48.4646V47.0174C38.5383 47.0348 38.4343 47.0348 38.313 47V46.7559C38.417 46.7733 38.4863 46.7907 38.5556 46.7907C38.625 46.7907 38.6943 46.7733 38.7636 46.7559L38.8676 46.8082Z" fill="#32B0E7"/>
<path d="M40.4967 48.6564C40.4967 48.9528 40.4447 49.1446 40.358 49.2493C40.2714 49.3539 40.1327 49.3539 39.9594 49.2493C39.8034 49.1621 39.6648 49.0051 39.5781 48.7959C39.4914 48.5867 39.4395 48.36 39.4395 48.0636C39.4395 47.7497 39.4914 47.5579 39.5781 47.4359C39.6648 47.3313 39.8034 47.3313 39.9767 47.4359C40.3234 47.6626 40.4967 48.0462 40.4967 48.6564ZM40.2367 48.5169C40.2367 48.2903 40.2194 48.0985 40.1674 47.959C40.1327 47.8195 40.0634 47.7323 39.9594 47.68C39.7688 47.5754 39.6821 47.7497 39.6821 48.2205C39.6821 48.4298 39.6994 48.6041 39.7514 48.7436C39.8034 48.8831 39.8727 48.9703 39.9594 49.0226C40.0461 49.0749 40.1154 49.0575 40.1674 48.9703C40.2194 48.9005 40.2367 48.7436 40.2367 48.5169Z" fill="#32B0E7"/>
<path d="M41.5019 48.3257V50.1217L41.2592 49.9822V48.535C41.1726 48.5524 41.0686 48.5524 40.9473 48.5175V48.2734C41.0513 48.2909 41.1206 48.3083 41.1899 48.3083C41.2592 48.3083 41.3286 48.2909 41.3979 48.2734L41.5019 48.3257Z" fill="#32B0E7"/>
<path d="M43.1139 50.174C43.1139 50.4704 43.0619 50.6622 42.9752 50.7668C42.8886 50.8715 42.7499 50.8715 42.5766 50.7668C42.4206 50.6797 42.282 50.5227 42.1953 50.3135C42.1086 50.1043 42.0566 49.8776 42.0566 49.5812C42.0566 49.2673 42.1086 49.0755 42.1953 48.9535C42.282 48.8488 42.4206 48.8488 42.5939 48.9535C42.9579 49.1801 43.1139 49.5812 43.1139 50.174ZM42.8712 50.0519C42.8712 49.8253 42.8539 49.6335 42.8019 49.494C42.7673 49.3545 42.6979 49.2673 42.5939 49.215C42.4033 49.1104 42.3166 49.2848 42.3166 49.7555C42.3166 49.9648 42.334 50.1391 42.3859 50.2786C42.4379 50.4181 42.5073 50.5053 42.5939 50.5576C42.6806 50.6099 42.7499 50.5925 42.8019 50.5053C42.8539 50.4181 42.8712 50.2612 42.8712 50.0519Z" fill="#32B0E7"/>
<path d="M44.1191 49.8423V51.6383L43.8764 51.4988V50.0516C43.7898 50.069 43.6858 50.069 43.5645 50.0341V49.79C43.6684 49.8075 43.7378 49.8249 43.8071 49.8249C43.8764 49.8249 43.9458 49.8075 44.0151 49.79L44.1191 49.8423Z" fill="#32B0E7"/>
<path d="M40.4967 51.6564C40.4967 51.9528 40.4447 52.1446 40.358 52.2493C40.2714 52.3539 40.1327 52.3539 39.9594 52.2493C39.8034 52.1621 39.6648 52.0051 39.5781 51.7959C39.4914 51.5867 39.4395 51.36 39.4395 51.0636C39.4395 50.7497 39.4914 50.5579 39.5781 50.4359C39.6648 50.3313 39.8034 50.3313 39.9767 50.4359C40.3234 50.6626 40.4967 51.0636 40.4967 51.6564ZM40.2367 51.5344C40.2367 51.3077 40.2194 51.1159 40.1674 50.9764C40.1327 50.8369 40.0634 50.7497 39.9594 50.6974C39.7688 50.5928 39.6821 50.7672 39.6821 51.2379C39.6821 51.4472 39.6994 51.6215 39.7514 51.761C39.8034 51.9005 39.8727 51.9877 39.9594 52.04C40.0461 52.0923 40.1154 52.0749 40.1674 51.9877C40.2194 51.9005 40.2367 51.7436 40.2367 51.5344Z" fill="#32B0E7"/>
<path d="M41.5019 51.3423V53.1383L41.2592 52.9988V51.5516C41.1726 51.569 41.0686 51.569 40.9473 51.5341V51.29C41.0513 51.3075 41.1206 51.3249 41.1899 51.3249C41.2592 51.3249 41.3286 51.3075 41.3979 51.29L41.5019 51.3423Z" fill="#32B0E7"/>
<path d="M43.1139 53.1906C43.1139 53.487 43.0619 53.6788 42.9752 53.7834C42.8886 53.8881 42.7499 53.8881 42.5766 53.7834C42.4206 53.6963 42.282 53.5393 42.1953 53.3301C42.1086 53.1209 42.0566 52.8942 42.0566 52.5978C42.0566 52.2839 42.1086 52.0921 42.1953 51.9701C42.282 51.8654 42.4206 51.8654 42.5939 51.9701C42.9579 52.1967 43.1139 52.5803 43.1139 53.1906ZM42.8712 53.0511C42.8712 52.8244 42.8539 52.6326 42.8019 52.4932C42.7673 52.3537 42.6979 52.2665 42.5939 52.2142C42.4033 52.1096 42.3166 52.2839 42.3166 52.7547C42.3166 52.9639 42.334 53.1383 42.3859 53.2778C42.4379 53.4173 42.5073 53.5045 42.5939 53.5568C42.6806 53.6091 42.7499 53.5916 42.8019 53.5045C42.8539 53.4173 42.8712 53.2778 42.8712 53.0511Z" fill="#32B0E7"/>
<path d="M44.1191 52.859V54.6549L43.8764 54.5154V53.0682C43.7898 53.0856 43.6858 53.0856 43.5645 53.0507V52.8066C43.6684 52.8241 43.7378 52.8415 43.8071 52.8415C43.8764 52.8415 43.9458 52.8241 44.0151 52.8066L44.1191 52.859Z" fill="#32B0E7"/>
<path d="M41.2245 54.1841V55.9801L40.9819 55.8406V54.3934C40.8952 54.4108 40.7912 54.4108 40.6699 54.3759V54.1318C40.7739 54.1493 40.8432 54.1667 40.9126 54.1667C40.9819 54.1667 41.0512 54.1493 41.1205 54.1318L41.2245 54.1841Z" fill="#32B0E7"/>
<path d="M42.9747 56.1193C42.9747 56.4157 42.9227 56.6075 42.8361 56.7121C42.7494 56.8168 42.6108 56.8168 42.4374 56.7121C42.2815 56.625 42.1428 56.468 42.0561 56.2588C41.9695 56.0496 41.9175 55.8229 41.9175 55.5265C41.9175 55.2126 41.9695 55.0208 42.0561 54.8988C42.1428 54.7942 42.2815 54.7942 42.4548 54.8988C42.8187 55.1254 42.9747 55.509 42.9747 56.1193ZM42.7321 55.9798C42.7321 55.7532 42.7147 55.5614 42.6628 55.4219C42.6281 55.2824 42.5588 55.1952 42.4548 55.1429C42.2641 55.0383 42.1775 55.2126 42.1775 55.6834C42.1775 55.8926 42.1948 56.067 42.2468 56.2065C42.2988 56.346 42.3681 56.4332 42.4548 56.4855C42.5414 56.5378 42.6108 56.5203 42.6628 56.4332C42.7147 56.3634 42.7321 56.2065 42.7321 55.9798Z" fill="#32B0E7"/>
<path d="M44.1191 55.8755V57.6715L43.8764 57.532V56.0848C43.7898 56.1022 43.6858 56.1022 43.5645 56.0673V55.8232C43.6684 55.8407 43.7378 55.8581 43.8071 55.8581C43.8764 55.8581 43.9458 55.8407 44.0151 55.8232L44.1191 55.8755Z" fill="#32B0E7"/>
<path d="M42.8365 59.0314C42.8365 59.3279 42.7846 59.5197 42.6979 59.6243C42.6112 59.7289 42.4726 59.7289 42.2993 59.6243C42.1433 59.5371 42.0046 59.3802 41.918 59.1709C41.8313 58.9617 41.7793 58.735 41.7793 58.4386C41.7793 58.1247 41.8313 57.9329 41.918 57.8109C42.0046 57.7063 42.1433 57.7063 42.3166 57.8109C42.6632 58.0376 42.8365 58.4386 42.8365 59.0314ZM42.5766 58.9094C42.5766 58.6827 42.5592 58.4909 42.5072 58.3514C42.4726 58.2119 42.4032 58.1247 42.2993 58.0724C42.1086 57.9678 42.0219 58.1422 42.0219 58.613C42.0219 58.8222 42.0393 58.9966 42.0913 59.1361C42.1433 59.2755 42.2126 59.3627 42.2993 59.415C42.3859 59.4673 42.4552 59.4499 42.5072 59.3627C42.5592 59.2755 42.5766 59.136 42.5766 58.9094Z" fill="#32B0E7"/>
<path d="M44.1191 58.8746V60.6705L43.8764 60.531V59.0838C43.7898 59.1012 43.6858 59.1012 43.5645 59.0664V58.8223C43.6684 58.8397 43.7378 58.8571 43.8071 58.8571C43.8764 58.8571 43.9458 58.8397 44.0151 58.8223L44.1191 58.8746Z" fill="#32B0E7"/>
<path d="M34.3973 45.7393L28.0694 51.6521L32.0566 53.9697C32.0566 54.0143 31.84 59.8933 31.84 60.5618C31.8326 63.8525 31.803 65.769 33.7819 68.7849C34.6458 70.0997 36.1742 71.1916 37.5107 71.9641C38.8767 72.759 39.9769 73.1898 40.036 73.2121C39.9621 73.1675 38.5001 72.2836 37.8799 71.4367C37.0529 70.3002 36.5877 68.6214 36.6099 67.1952C36.6394 65.5759 36.7206 64.7068 36.7649 63.8971C36.8092 63.1988 37.0776 57.0525 37.085 57.0005L41.1387 59.2512L34.3973 45.7393Z" fill="#50E6FF"/>
<path d="M67.7486 33.6336C67.9173 34.0681 68.2435 34.422 68.6615 34.6239L84.0601 42.9947C84.6479 43.3159 85.3025 43.4937 85.9711 43.5139C86.6398 43.5341 87.3038 43.3961 87.9097 43.1109L98.7437 36.6433C98.9147 36.5613 99.0634 36.4391 99.1774 36.2869C99.2913 36.1347 99.367 35.9571 99.3982 35.7692C99.4064 35.7012 99.4064 35.6325 99.3982 35.5645C99.3416 35.3106 99.2265 35.0737 99.0622 34.8729C98.8979 34.672 98.689 34.5128 98.4522 34.4082L83.0537 26.0373C82.4655 25.717 81.811 25.5397 81.1425 25.5195C80.4741 25.4993 79.8102 25.6369 79.204 25.9212L68.37 32.3888C68.1347 32.4861 67.9423 32.6657 67.8281 32.8944C67.714 33.1231 67.6857 33.3856 67.7486 33.6336Z" fill="#C9C9C9"/>
<path d="M89.026 57.1694L88.993 57.2192L88.1021 57.7725H88.0636C87.4578 58.0581 86.7937 58.1963 86.125 58.1761C85.4563 58.1559 84.8016 57.9779 84.2139 57.6563L68.8153 49.2855C68.0619 48.8595 67.7484 48.2786 67.8969 47.7696L67.7319 33.6338C67.9007 34.0683 68.2269 34.4222 68.6449 34.6241L84.0434 42.9949C84.6313 43.3161 85.2859 43.4939 85.9545 43.5141C86.6231 43.5343 87.2872 43.3962 87.8931 43.1111L87.9371 43.0835L98.7326 36.638C98.9031 36.5561 99.0512 36.4337 99.1642 36.2814C99.2773 36.1292 99.3519 35.9515 99.3815 35.7638L99.552 50.226C99.5602 50.2922 99.5602 50.3591 99.552 50.4252C99.5213 50.614 99.4457 50.7925 99.3318 50.9456C99.2179 51.0988 99.0689 51.222 98.8976 51.3049L98.5016 51.5373L89.026 57.1694Z" fill="white"/>
<path d="M82.8889 52.5384V53.6837L70.79 46.6407V45.501L82.8889 52.5384Z" fill="#DCDCDC"/>
<path d="M82.8889 50.7462L70.79 43.6866V42.5801L82.8889 49.6175V50.7462Z" fill="#DCDCDC"/>
<path d="M70.79 40.793V39.6533L82.8889 46.6908V47.8305L70.79 40.793Z" fill="#DCDCDC"/>
<path d="M95.8233 43.7527C95.4163 43.5148 95.4163 42.7458 95.8233 42.0376C96.2303 41.3294 96.9232 40.9311 97.3082 41.1856C97.6931 41.4401 97.7151 42.1925 97.3082 42.9062C96.9012 43.6199 96.2303 43.9961 95.8233 43.7527Z" fill="#4DC2EB"/>
<path d="M67.5618 15.4246C67.7293 15.8585 68.0561 16.2111 68.4747 16.4094L83.8733 24.7858C84.4616 25.1057 85.116 25.2828 85.7844 25.3029C86.4529 25.3231 87.1167 25.1858 87.723 24.9019L98.557 18.4343C98.728 18.3511 98.8768 18.2277 98.9906 18.0747C99.1045 17.9216 99.1802 17.7433 99.2114 17.5547C99.2196 17.4885 99.2196 17.4216 99.2114 17.3555C99.1543 17.1011 99.0384 16.8638 98.8731 16.6629C98.7078 16.462 98.4977 16.3032 98.26 16.1992L82.8889 7.82836C82.3008 7.50805 81.6463 7.33071 80.9778 7.31053C80.3093 7.29036 79.6454 7.42791 79.0393 7.71218L68.1723 14.1687C67.9367 14.2683 67.745 14.4505 67.6327 14.6814C67.5205 14.9123 67.4953 15.1764 67.5618 15.4246Z" fill="#E2E2E2"/>
<path d="M88.8395 38.9549L88.8065 39.0103L87.9155 39.5359L87.877 39.5635C87.2709 39.8478 86.607 39.9853 85.9385 39.9652C85.27 39.945 84.6155 39.7676 84.0274 39.4473L68.6288 31.0765C67.8754 30.6505 67.5564 30.0696 67.7104 29.5606L67.5454 15.4248C67.7129 15.8587 68.0397 16.2113 68.4583 16.4096L83.8569 24.786C84.4452 25.1059 85.0996 25.283 85.768 25.3031C86.4365 25.3233 87.1003 25.186 87.7066 24.9021L87.7506 24.8745L98.5406 18.429C98.7109 18.3454 98.8587 18.2219 98.9717 18.0688C99.0846 17.9157 99.1593 17.7375 99.1895 17.5493L99.36 32.0171C99.3682 32.0832 99.3682 32.1501 99.36 32.2162C99.3271 32.4042 99.2507 32.5818 99.1371 32.7346C99.0234 32.8874 98.8756 33.0112 98.7055 33.0959L98.3096 33.3283L88.8395 38.9549Z" fill="white"/>
<path d="M82.7078 34.3187V35.4584L70.6089 28.421V27.2812L82.7078 34.3187Z" fill="#DCDCDC"/>
<path d="M82.7078 32.5366L70.6089 25.4991V24.3594L82.7078 31.3968V32.5366Z" fill="#DCDCDC"/>
<path d="M70.5864 22.584V21.4443L82.6853 28.4818V29.6215L70.5864 22.584Z" fill="#DCDCDC"/>
<path d="M95.1475 25.3557C94.7405 25.1178 94.7405 24.3487 95.1475 23.635C95.5545 22.9213 96.2474 22.5285 96.6324 22.7885C97.0173 23.0486 97.0338 23.7955 96.6324 24.5036C96.2309 25.2118 95.538 25.5936 95.1475 25.3557Z" fill="#4DC2EB"/>
<g clip-path="url(#clip0)">
<circle cx="87.5586" cy="61.2129" r="11.5" stroke="#89BDF4"/>
<path d="M88.5498 58.0547V65.2129H87.417V59.4414C87.2119 59.5879 86.9906 59.7132 86.7529 59.8174C86.5186 59.9183 86.25 60.0078 85.9473 60.0859V59.1191C86.1361 59.0573 86.3184 58.9922 86.4941 58.9238C86.6699 58.8555 86.8424 58.779 87.0117 58.6943C87.1842 58.6097 87.3568 58.5153 87.5293 58.4111C87.7051 58.307 87.8857 58.1882 88.0713 58.0547H88.5498Z" fill="#0078D4"/>
<g clip-path="url(#clip1)">
<path d="M87.5584 72.5816C81.2426 72.5816 76.1899 67.5289 76.1899 61.2131C76.1899 54.8974 81.2426 49.8447 87.5584 49.8447C93.8742 49.8447 98.9268 54.8974 98.9268 61.2131C98.9268 67.5289 93.8742 72.5816 87.5584 72.5816Z" fill="#5DB300" stroke="#5DB300"/>
<path d="M83.1372 60.8344L86.8002 64.4976L92.8638 58.4346" stroke="white" stroke-width="1.5" stroke-miterlimit="10"/>
</g>
</g>
<defs>
<linearGradient id="paint0_linear" x1="38.4677" y1="29.5381" x2="44.0658" y2="65.0879" gradientUnits="userSpaceOnUse">
<stop stop-color="#32B0E7"/>
<stop offset="1" stop-color="#0078D4"/>
</linearGradient>
<clipPath id="clip0">
<rect width="24" height="24" fill="white" transform="translate(75.5586 49.2129)"/>
</clipPath>
<clipPath id="clip1">
<rect width="24" height="24" fill="white" transform="translate(75.5586 49.2129)"/>
</clipPath>
</defs>
</svg>
