<svg width="66" height="45" viewBox="0 0 66 45" fill="none" xmlns="http://www.w3.org/2000/svg">
<path d="M20.9437 38.3392C21.0817 38.8773 21.8209 40.0269 24.1885 40.3285C25.8698 40.5446 27.2668 39.8108 28.6272 39.0241C28.7328 38.9629 28.8384 38.9018 28.9399 38.8406C29.0455 38.7795 29.1552 38.7143 29.2608 38.6531C30.2476 38.0865 49.4053 25.402 49.8601 25.137L47.0661 23.5635C46.6965 23.7836 29.0902 35.6406 27.9612 36.3254C27.5713 36.5619 27.149 36.8309 26.3855 37.2875C26.3611 37.3038 26.3368 37.316 26.3083 37.3323C25.5692 37.7604 23.6605 38.6898 22.426 38.649C21.8452 38.6327 20.9924 38.3555 20.9437 38.3392Z" fill="#45CAF2"/>
<path d="M12.7454 18.2677L14.444 17.287C15.2607 16.813 16.355 16.7803 17.5963 17.2707L15.8976 18.2514C14.6563 17.761 13.562 17.7937 12.7454 18.2677Z" fill="#0078D4"/>
<path d="M31.4792 35.7506L29.7806 36.7313C30.5646 36.2736 31.0546 35.3256 31.0546 33.969C31.0709 31.4519 29.4049 28.3954 27.2 26.6955L28.8986 25.7148C31.1036 27.4147 32.7532 30.4712 32.7532 32.9883C32.7532 34.3449 32.2795 35.2929 31.4792 35.7506Z" fill="#0078D4"/>
<path d="M17.2207 16.617L18.9193 15.6363C19.981 15.0152 21.5 15.1133 23.1659 16.0776C26.3509 17.9246 28.9152 22.2233 28.9315 25.7374L27.2329 26.7181C27.2165 23.2203 24.6522 18.9053 21.4673 17.0583C19.8013 16.094 18.2824 15.9959 17.2207 16.617Z" fill="#0078D4"/>
<path d="M27.2328 26.7019C27.2165 23.2041 24.6522 18.8891 21.4672 17.0421C18.8866 15.5547 16.6653 16.1268 15.914 18.2353C13.2517 17.1892 11.2591 18.5458 11.2428 21.5696C11.2264 24.9367 13.7254 29.1046 16.8123 30.8862C16.9757 30.9843 17.139 31.066 17.3023 31.1477L26.3508 36.3944C26.4325 36.4434 26.5142 36.4761 26.5795 36.4925C29.0785 37.8164 31.0711 36.7213 31.0711 33.9917C31.1038 31.4583 29.4378 28.4018 27.2328 26.7019Z" fill="url(#paint0_linear)"/>
<path d="M16.3347 21.6252C16.3347 21.7878 16.3061 21.8931 16.2584 21.9505C16.2107 22.0079 16.1345 22.0079 16.0391 21.9505C15.9533 21.9027 15.8866 21.8165 15.839 21.7113C15.7913 21.5965 15.7627 21.4625 15.7627 21.3094C15.7627 21.1372 15.7913 21.0319 15.839 20.9649C15.8866 20.9075 15.9629 20.9075 16.0582 20.9649C16.2489 21.0798 16.3347 21.2903 16.3347 21.6252ZM16.2012 21.5486C16.2012 21.4242 16.1917 21.319 16.1631 21.2424C16.144 21.1754 16.1059 21.118 16.0582 21.0893C15.9533 21.0319 15.8962 21.1276 15.8962 21.386C15.8962 21.5008 15.9057 21.5965 15.9343 21.673C15.9629 21.7496 16.001 21.807 16.0487 21.8357C16.0963 21.8644 16.1345 21.8548 16.1631 21.807C16.1917 21.7591 16.2012 21.673 16.2012 21.5486Z" fill="#32B0E7"/>
<path d="M16.8871 21.4435V22.4291L16.7536 22.3526V21.5584C16.706 21.5679 16.6488 21.5584 16.582 21.5392V21.4053C16.6392 21.4148 16.6774 21.4244 16.7155 21.4244C16.7536 21.4244 16.7917 21.4148 16.8299 21.4053L16.8871 21.4435Z" fill="#32B0E7"/>
<path d="M17.7831 22.457C17.7831 22.6197 17.7545 22.7249 17.7069 22.7823C17.6592 22.8398 17.583 22.8398 17.4876 22.7823C17.4018 22.7345 17.3256 22.6484 17.2779 22.5336C17.2303 22.4187 17.2017 22.2943 17.2017 22.1317C17.2017 21.9594 17.2303 21.8542 17.2779 21.7872C17.3256 21.7298 17.4018 21.7298 17.4972 21.7872C17.6878 21.9116 17.7831 22.1317 17.7831 22.457ZM17.6402 22.39C17.6402 22.2656 17.6306 22.1604 17.602 22.0838C17.583 22.0073 17.5448 21.9594 17.4876 21.9307C17.3828 21.8733 17.3351 21.969 17.3351 22.2274C17.3351 22.3422 17.3446 22.4379 17.3732 22.5144C17.4018 22.591 17.44 22.6388 17.4876 22.6675C17.5353 22.6962 17.5734 22.6867 17.602 22.6388C17.6306 22.591 17.6402 22.5049 17.6402 22.39Z" fill="#32B0E7"/>
<path d="M18.3361 22.2758V23.2614L18.2026 23.1848V22.3906C18.1549 22.4002 18.0977 22.4002 18.031 22.381V22.2471C18.0882 22.2566 18.1263 22.2662 18.1645 22.2662C18.2026 22.2662 18.2407 22.2566 18.2789 22.2471L18.3361 22.2758Z" fill="#32B0E7"/>
<path d="M19.2223 23.29C19.2223 23.4527 19.1938 23.5579 19.1461 23.6154C19.0984 23.6728 19.0222 23.6728 18.9268 23.6154C18.8411 23.5675 18.7648 23.4814 18.7171 23.3666C18.6695 23.2517 18.6409 23.1273 18.6409 22.9647C18.6409 22.7924 18.6695 22.6872 18.7171 22.6202C18.7648 22.5628 18.8411 22.5628 18.9364 22.6202C19.1366 22.7446 19.2223 22.9647 19.2223 23.29ZM19.0889 23.223C19.0889 23.0986 19.0794 22.9934 19.0508 22.9168C19.0317 22.8403 18.9936 22.7924 18.9364 22.7637C18.8315 22.7063 18.7839 22.802 18.7839 23.0604C18.7839 23.1752 18.7934 23.2709 18.822 23.3474C18.8506 23.424 18.8887 23.4718 18.9364 23.5005C18.984 23.5292 19.0222 23.5197 19.0508 23.4718C19.0794 23.424 19.0889 23.3474 19.0889 23.223Z" fill="#32B0E7"/>
<path d="M19.7753 23.1176V24.1031L19.6418 24.0266V23.2324C19.5941 23.242 19.5369 23.242 19.4702 23.2228V23.0889C19.5274 23.0984 19.5655 23.108 19.6037 23.108C19.6418 23.108 19.6799 23.0984 19.7181 23.0889L19.7753 23.1176Z" fill="#32B0E7"/>
<path d="M16.3342 23.2709C16.3342 23.4335 16.3056 23.5388 16.2579 23.5962C16.2102 23.6536 16.134 23.6536 16.0387 23.5962C15.9529 23.5484 15.8766 23.4623 15.8289 23.3474C15.7908 23.2517 15.7622 23.1178 15.7622 22.9647C15.7622 22.7924 15.7908 22.6872 15.8385 22.6202C15.8861 22.5628 15.9624 22.5628 16.0577 22.6202C16.2484 22.7255 16.3342 22.9455 16.3342 23.2709ZM16.2007 23.2039C16.2007 23.0795 16.1912 22.9743 16.1626 22.8977C16.1435 22.8212 16.1054 22.7733 16.0577 22.7446C15.9529 22.6872 15.9052 22.7829 15.9052 23.0412C15.9052 23.1561 15.9147 23.2517 15.9433 23.3283C15.9719 23.4048 16.0101 23.4527 16.0577 23.4814C16.1054 23.5101 16.1435 23.5005 16.1721 23.4527C16.2007 23.4048 16.2007 23.3187 16.2007 23.2039Z" fill="#32B0E7"/>
<path d="M16.8871 23.099V24.0846L16.7536 24.008V23.2138C16.706 23.2234 16.6488 23.2234 16.582 23.2043V23.0703C16.6392 23.0799 16.6774 23.0894 16.7155 23.0894C16.7536 23.0894 16.7917 23.0799 16.8299 23.0703L16.8871 23.099Z" fill="#32B0E7"/>
<path d="M17.7831 24.1133C17.7831 24.2759 17.7545 24.3812 17.7069 24.4386C17.6592 24.496 17.583 24.496 17.4876 24.4386C17.4018 24.3908 17.3256 24.3046 17.2779 24.1898C17.2303 24.075 17.2017 23.9506 17.2017 23.7879C17.2017 23.6157 17.2303 23.5104 17.2779 23.4434C17.3256 23.386 17.4018 23.386 17.4972 23.4434C17.6878 23.5678 17.7831 23.7784 17.7831 24.1133ZM17.6402 24.0367C17.6402 23.9123 17.6306 23.8071 17.602 23.7305C17.583 23.654 17.5448 23.6061 17.4876 23.5774C17.3828 23.52 17.3351 23.6157 17.3351 23.874C17.3351 23.9889 17.3446 24.0846 17.3732 24.1611C17.4018 24.2377 17.44 24.2855 17.4876 24.3142C17.5353 24.3429 17.5734 24.3333 17.602 24.2855C17.6306 24.2472 17.6402 24.1611 17.6402 24.0367Z" fill="#32B0E7"/>
<path d="M18.3361 23.931V24.9166L18.2026 24.8401V24.0459C18.1549 24.0554 18.0977 24.0554 18.031 24.0363V23.9023C18.0882 23.9119 18.1263 23.9215 18.1645 23.9215C18.2026 23.9215 18.2407 23.9119 18.2789 23.9023L18.3361 23.931Z" fill="#32B0E7"/>
<path d="M16.3342 24.926C16.3342 25.0886 16.3056 25.1939 16.2579 25.2513C16.2102 25.3087 16.134 25.3087 16.0387 25.2513C15.9529 25.2034 15.8766 25.1173 15.8289 25.0025C15.7908 24.9068 15.7622 24.7729 15.7622 24.6102C15.7622 24.438 15.7908 24.3327 15.8385 24.2657C15.8861 24.2083 15.9624 24.2083 16.0577 24.2657C16.2484 24.3805 16.3342 24.6006 16.3342 24.926ZM16.2007 24.859C16.2007 24.7346 16.1912 24.6293 16.1626 24.5528C16.1435 24.4762 16.1054 24.4284 16.0482 24.3997C15.9433 24.3423 15.8957 24.438 15.8957 24.6963C15.8957 24.8111 15.9052 24.9068 15.9338 24.9834C15.9624 25.0503 16.0005 25.1078 16.0482 25.1365C16.0958 25.1652 16.134 25.1556 16.1626 25.1078C16.1912 25.0599 16.2007 24.9738 16.2007 24.859Z" fill="#32B0E7"/>
<path d="M16.8871 24.7445V25.7301L16.7536 25.6536V24.8594C16.706 24.8689 16.6488 24.8689 16.582 24.8498V24.7158C16.6392 24.7254 16.6774 24.735 16.7155 24.735C16.7536 24.735 16.7917 24.7254 16.8299 24.7158L16.8871 24.7445Z" fill="#32B0E7"/>
<path d="M16.0768 25.9213V26.9069L15.9433 26.8303V26.0361C15.8957 26.0457 15.8385 26.0457 15.7717 26.0265V25.8926C15.8289 25.9021 15.8671 25.9117 15.9052 25.9117C15.9433 25.9117 15.9815 25.9021 16.0196 25.8926L16.0768 25.9213Z" fill="#32B0E7"/>
<path d="M20.8244 24.2131C20.8244 24.3757 20.7958 24.481 20.7481 24.5384C20.7005 24.5958 20.6242 24.5958 20.5289 24.5384C20.4431 24.4906 20.3764 24.4044 20.3287 24.2992C20.281 24.1844 20.2524 24.0504 20.2524 23.8973C20.2524 23.7251 20.281 23.6198 20.3287 23.5528C20.3764 23.4954 20.4526 23.4954 20.548 23.5528C20.7386 23.6676 20.8244 23.8782 20.8244 24.2131ZM20.6909 24.1365C20.6909 24.0121 20.6814 23.9069 20.6528 23.8303C20.6337 23.7633 20.5956 23.7059 20.548 23.6772C20.4431 23.6198 20.3859 23.7155 20.3859 23.9738C20.3859 24.0887 20.3954 24.1844 20.424 24.2609C20.4526 24.3375 20.4908 24.3949 20.5384 24.4236C20.5861 24.4523 20.6242 24.4427 20.6528 24.3949C20.6814 24.347 20.6909 24.2609 20.6909 24.1365Z" fill="#32B0E7"/>
<path d="M21.3771 24.0314V25.017L21.2436 24.9405V24.1463C21.1959 24.1558 21.1387 24.1463 21.072 24.1271V23.9932C21.1292 24.0027 21.1673 24.0123 21.2055 24.0123C21.2436 24.0123 21.2817 24.0027 21.3199 23.9932L21.3771 24.0314Z" fill="#32B0E7"/>
<path d="M22.2731 25.0449C22.2731 25.2076 22.2445 25.3128 22.1969 25.3702C22.1492 25.4276 22.073 25.4276 21.9776 25.3702C21.8918 25.3224 21.8156 25.2363 21.7679 25.1214C21.7202 25.0066 21.6917 24.8822 21.6917 24.7196C21.6917 24.5473 21.7202 24.4421 21.7679 24.3751C21.8156 24.3177 21.8918 24.3177 21.9872 24.3751C22.1778 24.4995 22.2731 24.7196 22.2731 25.0449ZM22.1301 24.9779C22.1301 24.8535 22.1206 24.7483 22.092 24.6717C22.073 24.5952 22.0348 24.5473 21.9776 24.5186C21.8728 24.4612 21.8251 24.5569 21.8251 24.8153C21.8251 24.9301 21.8346 25.0258 21.8632 25.1023C21.8918 25.1789 21.93 25.2267 21.9776 25.2554C22.0253 25.2841 22.0634 25.2745 22.092 25.2267C22.1206 25.1789 22.1301 25.0927 22.1301 24.9779Z" fill="#32B0E7"/>
<path d="M22.826 24.8637V25.8492L22.6926 25.7727V24.9785C22.6449 24.9881 22.5877 24.9881 22.521 24.9689V24.835C22.5782 24.8445 22.6163 24.8541 22.6545 24.8541C22.6926 24.8541 22.7307 24.8445 22.7688 24.835L22.826 24.8637Z" fill="#32B0E7"/>
<path d="M23.7123 25.8779C23.7123 26.0406 23.6837 26.1458 23.6361 26.2032C23.5884 26.2607 23.5122 26.2607 23.4168 26.2032C23.331 26.1554 23.2548 26.0693 23.2071 25.9545C23.1595 25.8396 23.1309 25.7152 23.1309 25.5526C23.1309 25.3803 23.1595 25.2751 23.2071 25.2081C23.2548 25.1507 23.331 25.1507 23.4264 25.2081C23.6266 25.3325 23.7123 25.5526 23.7123 25.8779ZM23.5789 25.8109C23.5789 25.6865 23.5694 25.5813 23.5408 25.5047C23.5217 25.4282 23.4836 25.3803 23.4264 25.3516C23.3215 25.2942 23.2738 25.3899 23.2738 25.6483C23.2738 25.7631 23.2834 25.8588 23.312 25.9353C23.3406 26.0119 23.3787 26.0597 23.4264 26.0884C23.474 26.1171 23.5122 26.1076 23.5408 26.0597C23.5694 26.0119 23.5789 25.9353 23.5789 25.8109Z" fill="#32B0E7"/>
<path d="M24.2655 25.7064V26.692L24.132 26.6155V25.8213C24.0844 25.8308 24.0272 25.8308 23.9604 25.8117V25.6777C24.0176 25.6873 24.0558 25.6969 24.0939 25.6969C24.132 25.6969 24.1702 25.6873 24.2083 25.6777L24.2655 25.7064Z" fill="#32B0E7"/>
<path d="M20.8242 25.8588C20.8242 26.0214 20.7956 26.1267 20.7479 26.1841C20.7002 26.2415 20.624 26.2415 20.5286 26.1841C20.4428 26.1363 20.3666 26.0501 20.3189 25.9353C20.2808 25.8396 20.2522 25.7057 20.2522 25.5526C20.2522 25.3803 20.2808 25.2751 20.3285 25.2081C20.3761 25.1507 20.4524 25.1507 20.5477 25.2081C20.7384 25.3134 20.8242 25.5334 20.8242 25.8588ZM20.6907 25.7918C20.6907 25.6674 20.6812 25.5621 20.6526 25.4856C20.6335 25.409 20.5954 25.3612 20.5477 25.3325C20.4428 25.2751 20.3952 25.3708 20.3952 25.6291C20.3952 25.7439 20.4047 25.8396 20.4333 25.9162C20.4619 25.9927 20.5 26.0406 20.5477 26.0693C20.5954 26.098 20.6335 26.0884 20.6621 26.0406C20.6907 25.9927 20.6907 25.9066 20.6907 25.7918Z" fill="#32B0E7"/>
<path d="M21.3771 25.6869V26.6725L21.2436 26.5959V25.8017C21.1959 25.8113 21.1387 25.8113 21.072 25.7922V25.6582C21.1292 25.6678 21.1673 25.6773 21.2055 25.6773C21.2436 25.6773 21.2817 25.6678 21.3199 25.6582L21.3771 25.6869Z" fill="#32B0E7"/>
<path d="M22.2731 26.7011C22.2731 26.8638 22.2445 26.9691 22.1969 27.0265C22.1492 27.0839 22.073 27.0839 21.9776 27.0265C21.8918 26.9786 21.8156 26.8925 21.7679 26.7777C21.7202 26.6629 21.6917 26.5385 21.6917 26.3758C21.6917 26.2036 21.7202 26.0983 21.7679 26.0313C21.8156 25.9739 21.8918 25.9739 21.9872 26.0313C22.1778 26.1557 22.2731 26.3662 22.2731 26.7011ZM22.1301 26.6246C22.1301 26.5002 22.1206 26.395 22.092 26.3184C22.073 26.2419 22.0348 26.194 21.9776 26.1653C21.8728 26.1079 21.8251 26.2036 21.8251 26.4619C21.8251 26.5768 21.8346 26.6724 21.8632 26.749C21.8918 26.8255 21.93 26.8734 21.9776 26.9021C22.0253 26.9308 22.0634 26.9212 22.092 26.8734C22.1206 26.8351 22.1301 26.749 22.1301 26.6246Z" fill="#32B0E7"/>
<path d="M22.826 26.5189V27.5045L22.6926 27.428V26.6338C22.6449 26.6433 22.5877 26.6433 22.521 26.6242V26.4902C22.5782 26.4998 22.6163 26.5094 22.6545 26.5094C22.6926 26.5094 22.7307 26.4998 22.7688 26.4902L22.826 26.5189Z" fill="#32B0E7"/>
<path d="M23.7123 27.5332C23.7123 27.6958 23.6837 27.8011 23.6361 27.8585C23.5884 27.9159 23.5122 27.9159 23.4168 27.8585C23.331 27.8107 23.2548 27.7246 23.2071 27.6097C23.1595 27.4949 23.1309 27.3705 23.1309 27.2078C23.1309 27.0356 23.1595 26.9304 23.2071 26.8634C23.2548 26.806 23.331 26.806 23.4264 26.8634C23.6266 26.9878 23.7123 27.2078 23.7123 27.5332ZM23.5789 27.4662C23.5789 27.3418 23.5694 27.2365 23.5408 27.16C23.5217 27.0835 23.4836 27.0356 23.4264 27.0069C23.3215 26.9495 23.2738 27.0452 23.2738 27.3035C23.2738 27.4184 23.2834 27.514 23.312 27.5906C23.3406 27.6671 23.3787 27.715 23.4264 27.7437C23.474 27.7724 23.5122 27.7628 23.5408 27.715C23.5694 27.6671 23.5789 27.581 23.5789 27.4662Z" fill="#32B0E7"/>
<path d="M24.2655 27.3519V28.3375L24.132 28.261V27.4668C24.0844 27.4763 24.0272 27.4763 23.9604 27.4572V27.3232C24.0176 27.3328 24.0558 27.3424 24.0939 27.3424C24.132 27.3424 24.1702 27.3328 24.2083 27.3232L24.2655 27.3519Z" fill="#32B0E7"/>
<path d="M22.2731 28.3467C22.2731 28.5093 22.2445 28.6146 22.1969 28.672C22.1492 28.7294 22.073 28.7294 21.9776 28.672C21.8918 28.6241 21.8156 28.538 21.7679 28.4232C21.7202 28.3084 21.6917 28.184 21.6917 28.0213C21.6917 27.8491 21.7202 27.7438 21.7679 27.6768C21.8156 27.6194 21.8918 27.6194 21.9872 27.6768C22.1778 27.8012 22.2731 28.0213 22.2731 28.3467ZM22.1301 28.2797C22.1301 28.1553 22.1206 28.05 22.092 27.9735C22.073 27.8969 22.0348 27.8491 21.9776 27.8204C21.8728 27.763 21.8251 27.8587 21.8251 28.117C21.8251 28.2318 21.8346 28.3275 21.8632 28.4041C21.8918 28.4806 21.93 28.5285 21.9776 28.5572C22.0253 28.5859 22.0634 28.5763 22.092 28.5285C22.1206 28.4806 22.1301 28.3945 22.1301 28.2797Z" fill="#32B0E7"/>
<path d="M22.826 28.1742V29.1598L22.6926 29.0832V28.289C22.6449 28.2986 22.5877 28.2986 22.521 28.2795V28.1455C22.5782 28.1551 22.6163 28.1646 22.6545 28.1646C22.6926 28.1646 22.7307 28.1551 22.7688 28.1455L22.826 28.1742Z" fill="#32B0E7"/>
<path d="M23.7123 29.1884C23.7123 29.3511 23.6837 29.4564 23.6361 29.5138C23.5884 29.5712 23.5122 29.5712 23.4168 29.5138C23.331 29.4659 23.2548 29.3798 23.2071 29.265C23.1595 29.1502 23.1309 29.0258 23.1309 28.8631C23.1309 28.6909 23.1595 28.5856 23.2071 28.5186C23.2548 28.4612 23.331 28.4612 23.4264 28.5186C23.6266 28.643 23.7123 28.8535 23.7123 29.1884ZM23.5789 29.1119C23.5789 28.9875 23.5694 28.8823 23.5408 28.8057C23.5217 28.7292 23.4836 28.6813 23.4264 28.6526C23.3215 28.5952 23.2738 28.6909 23.2738 28.9492C23.2738 29.0641 23.2834 29.1597 23.312 29.2363C23.3406 29.3128 23.3787 29.3607 23.4264 29.3894C23.474 29.4181 23.5122 29.4085 23.5408 29.3607C23.5694 29.3128 23.5789 29.2363 23.5789 29.1119Z" fill="#32B0E7"/>
<path d="M24.2655 29.0072V29.9928L24.132 29.9162V29.122C24.0844 29.1316 24.0272 29.1316 23.9604 29.1125V28.9785C24.0176 28.9881 24.0558 28.9977 24.0939 28.9977C24.132 28.9977 24.1702 28.9881 24.2083 28.9785L24.2655 29.0072Z" fill="#32B0E7"/>
<path d="M22.6735 29.7338V30.7194L22.54 30.6428V29.8486C22.4923 29.8582 22.4351 29.8582 22.3684 29.839V29.7051C22.4256 29.7146 22.4637 29.7242 22.5019 29.7242C22.54 29.7242 22.5781 29.7146 22.6163 29.7051L22.6735 29.7338Z" fill="#32B0E7"/>
<path d="M23.6362 30.7959C23.6362 30.9585 23.6076 31.0638 23.5599 31.1212C23.5123 31.1786 23.436 31.1786 23.3407 31.1212C23.2549 31.0734 23.1786 30.9872 23.1309 30.8724C23.0833 30.7576 23.0547 30.6332 23.0547 30.4705C23.0547 30.2983 23.0833 30.193 23.1309 30.1261C23.1786 30.0687 23.2549 30.0687 23.3502 30.1261C23.5504 30.2505 23.6362 30.461 23.6362 30.7959ZM23.5027 30.7193C23.5027 30.5949 23.4932 30.4897 23.4646 30.4131C23.4455 30.3366 23.4074 30.2887 23.3502 30.26C23.2453 30.2026 23.1977 30.2983 23.1977 30.5567C23.1977 30.6715 23.2072 30.7672 23.2358 30.8437C23.2644 30.9203 23.3025 30.9681 23.3502 30.9968C23.3979 31.0255 23.436 31.016 23.4646 30.9681C23.4932 30.9298 23.5027 30.8437 23.5027 30.7193Z" fill="#32B0E7"/>
<path d="M24.2655 30.6625V31.6481L24.132 31.5715V30.7773C24.0844 30.7869 24.0272 30.7869 23.9604 30.7678V30.6338C24.0176 30.6434 24.0558 30.6529 24.0939 30.6529C24.132 30.6529 24.1702 30.6434 24.2083 30.6338L24.2655 30.6625Z" fill="#32B0E7"/>
<path d="M23.5598 32.3945C23.5598 32.5572 23.5312 32.6624 23.4835 32.7198C23.4358 32.7773 23.3596 32.7773 23.2642 32.7198C23.1785 32.672 23.1022 32.5859 23.0545 32.4711C23.0069 32.3562 22.9783 32.2318 22.9783 32.0692C22.9783 31.8969 23.0069 31.7917 23.0545 31.7247C23.1022 31.6673 23.1785 31.6673 23.2738 31.7247C23.4644 31.8491 23.5598 32.0692 23.5598 32.3945ZM23.4168 32.3275C23.4168 32.2031 23.4072 32.0979 23.3786 32.0213C23.3596 31.9448 23.3214 31.8969 23.2642 31.8682C23.1594 31.8108 23.1117 31.9065 23.1117 32.1649C23.1117 32.2797 23.1213 32.3754 23.1499 32.4519C23.1785 32.5285 23.2166 32.5763 23.2642 32.605C23.3119 32.6337 23.35 32.6242 23.3786 32.5763C23.4072 32.5285 23.4168 32.4519 23.4168 32.3275Z" fill="#32B0E7"/>
<path d="M24.2655 32.308V33.2936L24.132 33.217V32.4228C24.0844 32.4324 24.0272 32.4324 23.9604 32.4133V32.2793C24.0176 32.2889 24.0558 32.2984 24.0939 32.2984C24.132 32.2984 24.1702 32.2889 24.2083 32.2793L24.2655 32.308Z" fill="#32B0E7"/>
<path d="M18.9182 25.1006L15.4379 28.3455L17.6308 29.6173C17.6308 29.6418 17.5117 32.868 17.5117 33.2349C17.5076 35.0408 17.4914 36.0925 18.5798 37.7476C19.0549 38.4691 19.8955 39.0683 20.6306 39.4923C21.3819 39.9285 21.987 40.1649 22.0195 40.1771C21.9789 40.1527 21.1748 39.6676 20.8336 39.2029C20.3788 38.5792 20.123 37.6579 20.1351 36.8752C20.1514 35.9865 20.1961 35.5096 20.2204 35.0652C20.2448 34.6821 20.3924 31.309 20.3964 31.2805L22.626 32.5157L18.9182 25.1006Z" fill="#50E6FF"/>
<path d="M37.2621 18.4568C37.3549 18.6953 37.5344 18.8895 37.7643 19.0003L46.2335 23.5941C46.5568 23.7703 46.9168 23.8679 47.2846 23.879C47.6523 23.89 48.0175 23.8143 48.3508 23.6578L54.3095 20.1085C54.4035 20.0635 54.4853 19.9964 54.548 19.9129C54.6106 19.8294 54.6523 19.7319 54.6694 19.6288C54.674 19.5915 54.674 19.5538 54.6694 19.5165C54.6383 19.3772 54.575 19.2472 54.4846 19.1369C54.3943 19.0267 54.2794 18.9394 54.1492 18.8819L45.68 14.2882C45.3565 14.1124 44.9965 14.0151 44.6288 14.004C44.2612 13.9929 43.896 14.0684 43.5626 14.2244L37.6039 17.7737C37.4745 17.8271 37.3687 17.9257 37.3059 18.0512C37.2431 18.1767 37.2276 18.3207 37.2621 18.4568Z" fill="#C9C9C9"/>
<path d="M48.9649 31.3729L48.9468 31.4003L48.4567 31.7039H48.4356C48.1024 31.8606 47.7371 31.9365 47.3693 31.9254C47.0016 31.9143 46.6415 31.8166 46.3183 31.6401L37.849 27.0464C37.4347 26.8126 37.2622 26.4938 37.3439 26.2145L37.2532 18.457C37.346 18.6955 37.5254 18.8897 37.7553 19.0005L46.2245 23.5942C46.5478 23.7705 46.9078 23.8681 47.2756 23.8791C47.6433 23.8902 48.0085 23.8145 48.3418 23.658L48.366 23.6428L54.3035 20.1057C54.3973 20.0607 54.4788 19.9936 54.5409 19.91C54.6031 19.8264 54.6441 19.729 54.6605 19.626L54.7542 27.5625C54.7587 27.5988 54.7587 27.6355 54.7542 27.6718C54.7373 27.7754 54.6958 27.8734 54.6331 27.9574C54.5704 28.0415 54.4885 28.1091 54.3943 28.1546L54.1765 28.2821L48.9649 31.3729Z" fill="white"/>
<path d="M45.5895 28.8317V29.4602L38.9351 25.5952V24.9697L45.5895 28.8317Z" fill="#DCDCDC"/>
<path d="M45.5895 27.8476L38.9351 23.9734V23.3662L45.5895 27.2282V27.8476Z" fill="#DCDCDC"/>
<path d="M38.9351 22.3852V21.7598L45.5895 25.6218V26.2472L38.9351 22.3852Z" fill="#DCDCDC"/>
<path d="M52.7035 24.0107C52.4797 23.8801 52.4797 23.4581 52.7035 23.0695C52.9273 22.6809 53.3085 22.4623 53.5202 22.6019C53.7319 22.7416 53.744 23.1545 53.5202 23.5462C53.2964 23.9378 52.9273 24.1443 52.7035 24.0107Z" fill="#4DC2EB"/>
<path d="M37.1592 8.46465C37.2513 8.70277 37.4311 8.89626 37.6613 9.0051L46.1305 13.6019C46.4541 13.7774 46.814 13.8746 47.1816 13.8857C47.5493 13.8968 47.9144 13.8214 48.2478 13.6656L54.2065 10.1163C54.3006 10.0706 54.3824 10.0029 54.445 9.91895C54.5077 9.83495 54.5493 9.73709 54.5665 9.63358C54.571 9.59729 54.571 9.56057 54.5665 9.52428C54.535 9.38468 54.4713 9.25448 54.3804 9.14423C54.2895 9.03398 54.1739 8.94679 54.0432 8.88972L45.5891 4.29598C45.2656 4.1202 44.9056 4.02288 44.538 4.01181C44.1703 4.00073 43.8052 4.07622 43.4718 4.23222L37.4949 7.77544C37.3654 7.83009 37.2599 7.93006 37.1982 8.05679C37.1365 8.18353 37.1226 8.32844 37.1592 8.46465Z" fill="#E2E2E2"/>
<path d="M48.8619 21.3777L48.8437 21.4081L48.3537 21.6965L48.3325 21.7117C47.9992 21.8677 47.634 21.9432 47.2664 21.9321C46.8987 21.921 46.5387 21.8237 46.2152 21.6479L37.746 17.0542C37.3316 16.8204 37.1562 16.5016 37.2409 16.2223L37.1501 8.46484C37.2423 8.70296 37.422 8.89645 37.6522 9.00529L46.1215 13.6021C46.445 13.7776 46.805 13.8748 47.1726 13.8859C47.5402 13.8969 47.9053 13.8216 48.2388 13.6658L48.263 13.6506L54.1975 10.1135C54.2912 10.0676 54.3725 9.99983 54.4346 9.91581C54.4967 9.8318 54.5378 9.73403 54.5544 9.63074L54.6482 17.5703C54.6527 17.6066 54.6527 17.6434 54.6482 17.6797C54.6301 17.7828 54.5881 17.8803 54.5256 17.9641C54.463 18.048 54.3817 18.1159 54.2882 18.1624L54.0704 18.2899L48.8619 21.3777Z" fill="white"/>
<path d="M45.4893 18.8337V19.4592L38.835 15.5971V14.9717L45.4893 18.8337Z" fill="#DCDCDC"/>
<path d="M45.4893 17.8556L38.835 13.9936V13.3682L45.4893 17.2302V17.8556Z" fill="#DCDCDC"/>
<path d="M38.823 12.394V11.7686L45.4774 15.6306V16.256L38.823 12.394Z" fill="#DCDCDC"/>
<path d="M52.3312 13.9149C52.1074 13.7843 52.1074 13.3623 52.3312 12.9706C52.555 12.579 52.9362 12.3634 53.1479 12.5061C53.3596 12.6488 53.3687 13.0587 53.1479 13.4473C52.9271 13.8359 52.546 14.0454 52.3312 13.9149Z" fill="#4DC2EB"/>
<g clip-path="url(#clip0)">
<circle cx="54" cy="31.9648" r="11.5" stroke="#89BDF4"/>
<path d="M54.9912 28.8066V35.9648H53.8584V30.1934C53.6533 30.3398 53.432 30.4652 53.1943 30.5693C52.96 30.6702 52.6914 30.7598 52.3887 30.8379V29.8711C52.5775 29.8092 52.7598 29.7441 52.9355 29.6758C53.1113 29.6074 53.2839 29.5309 53.4531 29.4463C53.6257 29.3617 53.7982 29.2673 53.9707 29.1631C54.1465 29.0589 54.3271 28.9401 54.5127 28.8066H54.9912Z" fill="#0078D4"/>
<g clip-path="url(#clip1)">
<path d="M54 43.3335C47.6842 43.3335 42.6316 38.2809 42.6316 31.9651C42.6316 25.6493 47.6842 20.5967 54 20.5967C60.3158 20.5967 65.3684 25.6493 65.3684 31.9651C65.3684 38.2809 60.3158 43.3335 54 43.3335Z" fill="#5DB300" stroke="#5DB300"/>
<path d="M49.5791 31.5864L53.2421 35.2496L59.3057 29.1865" stroke="white" stroke-width="1.5" stroke-miterlimit="10"/>
</g>
</g>
<defs>
<linearGradient id="paint0_linear" x1="21.1571" y1="16.21" x2="24.2228" y2="35.7211" gradientUnits="userSpaceOnUse">
<stop stop-color="#32B0E7"/>
<stop offset="1" stop-color="#0078D4"/>
</linearGradient>
<clipPath id="clip0">
<rect width="24" height="24" fill="white" transform="translate(42 19.9648)"/>
</clipPath>
<clipPath id="clip1">
<rect width="24" height="24" fill="white" transform="translate(42 19.9648)"/>
</clipPath>
</defs>
</svg>
