<svg width="20" height="20" viewBox="0 0 20 20" fill="none" xmlns="http://www.w3.org/2000/svg">
<path d="M2.22266 6.64746H17.7782V15.3201C17.7782 15.458 17.7235 15.5902 17.626 15.6877C17.5285 15.7851 17.3963 15.8399 17.2585 15.8399H2.74239C2.60455 15.8399 2.47235 15.7851 2.37488 15.6877C2.27741 15.5902 2.22266 15.458 2.22266 15.3201V6.64746Z" fill="url(#paint0_linear)"/>
<path d="M2.74514 3.33302H17.2557C17.324 3.33302 17.3916 3.34646 17.4546 3.37258C17.5177 3.3987 17.575 3.43698 17.6232 3.48524C17.6715 3.53351 17.7098 3.5908 17.7359 3.65386C17.762 3.71692 17.7755 3.7845 17.7755 3.85275V6.64726H2.22266V3.85275C2.22266 3.78427 2.23619 3.71646 2.26248 3.65322C2.28877 3.58999 2.3273 3.53257 2.37585 3.48427C2.42441 3.43597 2.48203 3.39774 2.5454 3.37179C2.60878 3.34583 2.67666 3.33265 2.74514 3.33302Z" fill="#0078D4"/>
<path d="M4.35009 8.65156L4.688 8.31269C4.71662 8.28399 4.75547 8.26783 4.79599 8.26778C4.83652 8.26772 4.87541 8.28376 4.90411 8.31238L7.40386 10.8051C7.43237 10.8335 7.45499 10.8673 7.47045 10.9044C7.48591 10.9416 7.49389 10.9814 7.49395 11.0217C7.49401 11.062 7.48613 11.1018 7.47078 11.139C7.45543 11.1763 7.4329 11.2101 7.40447 11.2386L7.06721 11.5768L4.35104 8.86831C4.32234 8.8397 4.30619 8.80085 4.30613 8.76032C4.30607 8.71979 4.32212 8.6809 4.35074 8.65221L4.35009 8.65156Z" fill="#F2F2F2"/>
<path d="M4.73813 13.7069L4.39926 13.369C4.37056 13.3404 4.3544 13.3015 4.35435 13.261C4.35429 13.2205 4.37033 13.1816 4.39895 13.1529L7.06803 10.4762L7.40626 10.8135C7.46383 10.8709 7.49623 10.9488 7.49635 11.0301C7.49646 11.1114 7.46428 11.1894 7.40687 11.247L4.95165 13.7092C4.92303 13.7379 4.88419 13.754 4.84366 13.7541C4.80313 13.7541 4.76424 13.7381 4.73554 13.7095L4.73813 13.7069Z" fill="#E6E6E6"/>
<path d="M12.4724 12.917H8.63932C8.49226 12.917 8.37305 13.0362 8.37305 13.1833V13.5758C8.37305 13.7229 8.49226 13.8421 8.63932 13.8421H12.4724C12.6195 13.8421 12.7387 13.7229 12.7387 13.5758V13.1833C12.7387 13.0362 12.6195 12.917 12.4724 12.917Z" fill="#F2F2F2"/>
<defs>
<linearGradient id="paint0_linear" x1="10.0004" y1="15.8399" x2="10.0004" y2="6.64746" gradientUnits="userSpaceOnUse">
<stop stop-color="#32BEDD"/>
<stop offset="0.175" stop-color="#32CAEA"/>
<stop offset="0.41" stop-color="#32D2F2"/>
<stop offset="0.775" stop-color="#32D4F5"/>
</linearGradient>
</defs>
</svg>
