<svg width="17" height="17" viewBox="0 0 17 17" fill="none" xmlns="http://www.w3.org/2000/svg">
<g clip-path="url(#clip0)">
<path d="M1.0166 5.39355H16.1277V13.8184C16.1277 13.9523 16.0745 14.0808 15.9798 14.1755C15.8852 14.2701 15.7567 14.3233 15.6228 14.3233H1.52149C1.38759 14.3233 1.25917 14.2701 1.16448 14.1755C1.0698 14.0808 1.0166 13.9523 1.0166 13.8184V5.39355Z" fill="url(#paint0_linear)"/>
<path d="M1.52416 2.17384H15.6202C15.6865 2.17384 15.7521 2.18689 15.8134 2.21227C15.8746 2.23764 15.9303 2.27483 15.9772 2.32171C16.024 2.3686 16.0612 2.42426 16.0866 2.48551C16.112 2.54677 16.125 2.61242 16.125 2.67872V5.39339H1.0166V2.67872C1.0166 2.6122 1.02975 2.54632 1.05529 2.48489C1.08083 2.42346 1.11826 2.36769 1.16542 2.32077C1.21259 2.27385 1.26856 2.23672 1.33013 2.2115C1.39169 2.18628 1.45763 2.17348 1.52416 2.17384Z" fill="#0078D4"/>
<path d="M3.99221 9.38851L4.30063 9.08096L6.72838 11.5156C6.75452 11.5418 6.76917 11.5773 6.76912 11.6143C6.76907 11.6513 6.75431 11.6868 6.72811 11.7129L6.41969 12.0205C6.39348 12.0466 6.35796 12.0613 6.32095 12.0612C6.28393 12.0612 6.24846 12.0464 6.22232 12.0202L3.99103 9.7826C3.93876 9.73018 3.90945 9.65915 3.90956 9.58512C3.90966 9.5111 3.93917 9.44015 3.99159 9.38788L3.99221 9.38851Z" fill="url(#paint1_linear)"/>
<path d="M4.2959 10.0918L3.98835 9.78338C3.93608 9.73096 3.90677 9.65993 3.90688 9.5859C3.90698 9.51188 3.93649 9.44092 3.98891 9.38866L6.26555 7.11844C6.29175 7.09231 6.32727 7.07766 6.36428 7.07771C6.4013 7.07776 6.43677 7.09251 6.46291 7.11872L6.77046 7.42714C6.79659 7.45335 6.81124 7.48887 6.81119 7.52588C6.81114 7.56289 6.79638 7.59837 6.77018 7.6245L4.2959 10.0918Z" fill="#F2F2F2"/>
<path d="M10.5485 12.0229L10.2401 11.7154C10.2271 11.7024 10.2168 11.687 10.2098 11.6701C10.2028 11.6532 10.1991 11.6351 10.1991 11.6167C10.1991 11.5984 10.2027 11.5802 10.2097 11.5633C10.2166 11.5464 10.2269 11.531 10.2398 11.518L12.6707 9.08022L12.9791 9.38777C13.0316 9.44004 13.0611 9.51099 13.0612 9.58501C13.0613 9.65904 13.032 9.73007 12.9797 9.78249L10.7453 12.0232C10.7191 12.0495 10.6837 12.0642 10.6466 12.0643C10.6096 12.0643 10.5741 12.0497 10.5479 12.0235L10.5485 12.0229Z" fill="url(#paint2_linear)"/>
<path d="M10.1933 7.42851L10.5008 7.12009C10.527 7.09388 10.5624 7.07912 10.5995 7.07907C10.6365 7.07902 10.672 7.09367 10.6982 7.11981L12.9748 9.39002C13.0273 9.44229 13.0568 9.51324 13.0569 9.58726C13.057 9.66129 13.0277 9.73232 12.9754 9.78474L12.6678 10.0932L10.1955 7.62775C10.1821 7.6149 10.1714 7.59952 10.164 7.58249C10.1566 7.56546 10.1527 7.54713 10.1525 7.52858C10.1523 7.51003 10.1558 7.49162 10.1628 7.47444C10.1698 7.45726 10.1802 7.44164 10.1933 7.42851Z" fill="#F2F2F2"/>
<path d="M9.80871 6.35362L9.31601 6.19588C9.26364 6.17912 9.2076 6.20798 9.19084 6.26034L7.18258 12.5334C7.16581 12.5858 7.19467 12.6418 7.24704 12.6586L7.73974 12.8163C7.79211 12.8331 7.84815 12.8042 7.86491 12.7518L9.87317 6.47878C9.88993 6.42642 9.86107 6.37038 9.80871 6.35362Z" fill="#F2F2F2"/>
</g>
<defs>
<linearGradient id="paint0_linear" x1="8.57216" y1="14.3233" x2="8.57216" y2="5.39355" gradientUnits="userSpaceOnUse">
<stop stop-color="#0078D4"/>
<stop offset="0.502" stop-color="#4093E6"/>
<stop offset="0.775" stop-color="#5EA0EF"/>
</linearGradient>
<linearGradient id="paint1_linear" x1="3.90957" y1="10.5727" x2="6.77268" y2="10.5727" gradientUnits="userSpaceOnUse">
<stop stop-color="#5EA0EF"/>
<stop offset="0.372" stop-color="#9FC6F5"/>
<stop offset="0.8" stop-color="#E4EFFC"/>
<stop offset="1" stop-color="white"/>
</linearGradient>
<linearGradient id="paint2_linear" x1="10.1987" y1="10.5729" x2="13.0609" y2="10.5729" gradientUnits="userSpaceOnUse">
<stop stop-color="white"/>
<stop offset="0.2" stop-color="#E4EFFC"/>
<stop offset="0.628" stop-color="#9FC6F5"/>
<stop offset="1" stop-color="#5EA0EF"/>
</linearGradient>
<clipPath id="clip0">
<rect width="16" height="16" fill="white" transform="translate(0.572266 0.248535)"/>
</clipPath>
</defs>
</svg>
