<?xml version="1.0" encoding="UTF-8"?>
<svg width="303px" height="28px" viewBox="0 0 303 28" version="1.1" xmlns="http://www.w3.org/2000/svg" xmlns:xlink="http://www.w3.org/1999/xlink">
    <title>cliniciandashboard-logo</title>
    <g id="Current-Version" stroke="none" stroke-width="1" fill="none" fill-rule="evenodd">
        <g id="PatientList-Dark" transform="translate(-15.000000, -10.000000)">
            <g id="cliniciandashboard-logo" transform="translate(15.000000, 10.000000)">
                <path d="M46.4182107,22 C48.894155,22 51.1450135,20.9423347 52.6981059,19.254571 L49.5018868,16.464135 C48.7591035,17.4092827 47.6561829,18.0393812 46.4182107,18.0393812 C44.3024037,18.0393812 42.501717,16.1940928 42.501717,13.9887482 C42.501717,11.8059072 44.3024037,9.96061885 46.4182107,9.96061885 C47.6336743,9.96061885 48.7591035,10.5907173 49.4793783,11.535865 L52.6981059,8.72292546 C51.1450135,7.05766526 48.894155,6 46.4182107,6 C41.848968,6 38,9.64556962 38,13.9887482 C38,18.3319269 41.848968,22 46.4182107,22 Z M66.0231881,21.7299578 L66.0231881,17.8368495 L58.8204409,17.8368495 L58.8204409,6.27004219 L54.4537755,6.27004219 L54.4537755,21.7299578 L66.0231881,21.7299578 Z M72.3255918,21.7299578 L72.3255918,6.27004219 L67.9589264,6.27004219 L67.9589264,21.7299578 L72.3255918,21.7299578 Z M79.6633905,21.7299578 L79.6633905,13.4486639 L85.6956912,21.7299578 L90.0623567,21.7299578 L90.0623567,6.27004219 L85.6956912,6.27004219 L85.6956912,14.5513361 L79.6633905,6.27004219 L75.296725,6.27004219 L75.296725,21.7299578 L79.6633905,21.7299578 Z M97.4001553,21.7299578 L97.4001553,6.27004219 L93.0334899,6.27004219 L93.0334899,21.7299578 L97.4001553,21.7299578 Z M107.844139,22 C110.320083,22 112.570941,20.9423347 114.124034,19.254571 L110.927815,16.464135 C110.185031,17.4092827 109.082111,18.0393812 107.844139,18.0393812 C105.728332,18.0393812 103.927645,16.1940928 103.927645,13.9887482 C103.927645,11.8059072 105.728332,9.96061885 107.844139,9.96061885 C109.059602,9.96061885 110.185031,10.5907173 110.905306,11.535865 L114.124034,8.72292546 C112.570941,7.05766526 110.320083,6 107.844139,6 C103.274896,6 99.4259279,9.64556962 99.4259279,13.9887482 C99.4259279,18.3319269 103.274896,22 107.844139,22 Z M120.246369,21.7299578 L120.246369,6.27004219 L115.879703,6.27004219 L115.879703,21.7299578 L120.246369,21.7299578 Z M126.886401,21.7299578 L127.674202,19.6596343 L133.053754,19.6596343 L133.841554,21.7299578 L138.770934,21.7299578 L132.828668,6.27004219 L127.899288,6.27004219 L121.957021,21.7299578 L126.886401,21.7299578 Z M131.815781,16.4416315 L128.912174,16.4416315 L130.375232,12.6835443 L131.815781,16.4416315 Z M144.848252,21.7299578 L144.848252,13.4486639 L150.880553,21.7299578 L155.247218,21.7299578 L155.247218,6.27004219 L150.880553,6.27004219 L150.880553,14.5513361 L144.848252,6.27004219 L140.481587,6.27004219 L140.481587,21.7299578 L144.848252,21.7299578 Z M170.057867,21.7299578 C175.459927,21.7299578 179.286387,18.511955 179.286387,13.9887482 C179.286387,9.46554149 175.459927,6.27004219 170.057867,6.27004219 L164.295669,6.27004219 L164.295669,21.7299578 L170.057867,21.7299578 Z M170.778142,17.769339 L168.662335,17.769339 L168.662335,10.230661 L170.778142,10.230661 C173.119035,10.230661 174.78467,11.7834037 174.78467,13.9887482 C174.78467,16.1940928 173.119035,17.769339 170.778142,17.769339 Z M183.051752,21.7299578 L183.839552,19.6596343 L189.219104,19.6596343 L190.006904,21.7299578 L194.936284,21.7299578 L188.994018,6.27004219 L184.064638,6.27004219 L178.122371,21.7299578 L183.051752,21.7299578 Z M187.981132,16.4416315 L185.077524,16.4416315 L186.540582,12.6835443 L187.981132,16.4416315 Z M201.852851,22 C205.724327,22 208.22278,20.0872011 208.22278,16.8241913 C208.22278,13.8762307 205.971922,12.9085795 202.370548,12.1434599 C200.164707,11.6708861 199.624501,11.4233474 199.624501,10.6357243 C199.624501,10.0506329 200.142198,9.6230661 201.200102,9.6230661 C202.595634,9.6230661 204.171235,10.140647 205.611785,11.1758087 L207.795117,8.092827 C206.084465,6.72011252 203.991166,6 201.312645,6 C197.643746,6 195.212818,8.00281294 195.212818,11.0857947 C195.212818,14.3037975 197.801306,15.1814346 201.155085,15.9465541 C203.2934,16.4416315 203.833606,16.5541491 203.833606,17.2967651 C203.833606,17.9718706 203.203366,18.3769339 202.010411,18.3769339 C200.187216,18.3769339 198.476563,17.7243319 196.900962,16.4866385 L194.470035,19.3895921 C196.428282,21.1223629 199.061786,22 201.852851,22 Z M213.788832,21.7299578 L213.788832,15.7890295 L219.438487,15.7890295 L219.438487,21.7299578 L223.805152,21.7299578 L223.805152,6.27004219 L219.438487,6.27004219 L219.438487,11.8959212 L213.788832,11.8959212 L213.788832,6.27004219 L209.422166,6.27004219 L209.422166,21.7299578 L213.788832,21.7299578 Z M234.615704,21.7299578 C237.766906,21.7299578 240.017764,20.0421941 240.017764,17.5668073 C240.017764,15.8565401 238.959861,14.3938115 237.159174,13.628692 C238.509689,12.97609 239.297489,11.6708861 239.297489,10.1631505 C239.297489,7.91279887 237.249208,6.27004219 234.300584,6.27004219 L225.972407,6.27004219 L225.972407,21.7299578 L234.615704,21.7299578 Z M233.24268,12.278481 L230.316564,12.278481 L230.316564,9.93811533 L233.24268,9.93811533 C234.143024,9.93811533 234.795773,10.4331927 234.795773,11.1082982 C234.795773,11.7834037 234.143024,12.278481 233.24268,12.278481 Z M233.895429,18.0618847 L230.316564,18.0618847 L230.316564,15.5864979 L233.895429,15.5864979 C234.84079,15.5864979 235.516047,16.1040788 235.516047,16.8241913 C235.516047,17.5443038 234.84079,18.0618847 233.895429,18.0618847 Z M248.172303,22 C252.741546,22 256.590514,18.3319269 256.590514,13.9887482 C256.590514,9.64556962 252.741546,6 248.172303,6 C243.60306,6 239.754092,9.64556962 239.754092,13.9887482 C239.754092,18.3319269 243.60306,22 248.172303,22 Z M248.172303,18.0393812 C246.056496,18.0393812 244.255809,16.1940928 244.255809,13.9887482 C244.255809,11.8059072 246.056496,9.96061885 248.172303,9.96061885 C250.28811,9.96061885 252.088797,11.8059072 252.088797,13.9887482 C252.088797,16.1940928 250.28811,18.0393812 248.172303,18.0393812 Z M260.355878,21.7299578 L261.143679,19.6596343 L266.523231,19.6596343 L267.311031,21.7299578 L272.240411,21.7299578 L266.298145,6.27004219 L261.368765,6.27004219 L255.426498,21.7299578 L260.355878,21.7299578 Z M265.285258,16.4416315 L262.381651,16.4416315 L263.844709,12.6835443 L265.285258,16.4416315 Z M277.513851,21.7299578 L277.513851,17.07173 L278.571754,17.07173 L281.835499,21.7299578 L286.809896,21.7299578 L283.186014,16.5766526 C285.189278,15.7440225 286.472268,13.9662447 286.472268,11.6708861 C286.472268,8.4978903 284.018832,6.27004219 280.55251,6.27004219 L273.147186,6.27004219 L273.147186,21.7299578 L277.513851,21.7299578 Z M280.192373,13.1111111 L277.513851,13.1111111 L277.513851,10.230661 L280.192373,10.230661 C281.227767,10.230661 281.970551,10.838256 281.970551,11.6708861 C281.970551,12.5035162 281.227767,13.1111111 280.192373,13.1111111 Z M293.77148,21.7299578 C299.173541,21.7299578 303,18.511955 303,13.9887482 C303,9.46554149 299.173541,6.27004219 293.77148,6.27004219 L288.009283,6.27004219 L288.009283,21.7299578 L293.77148,21.7299578 Z M294.491755,17.769339 L292.375948,17.769339 L292.375948,10.230661 L294.491755,10.230661 C296.832648,10.230661 298.498283,11.7834037 298.498283,13.9887482 C298.498283,16.1940928 296.832648,17.769339 294.491755,17.769339 Z" id="CLINICIANDASHBOARD" fill="#FFFFFF" fill-rule="nonzero"></path>
                <g id="icon">
                    <rect id="Rectangle-Copy-22" fill="#64FCEB" x="10" y="0" width="8" height="8"></rect>
                    <rect id="Rectangle-Copy-21" fill="#1193E4" x="20" y="10" width="8" height="8"></rect>
                    <rect id="Rectangle-Copy-20" fill="#18B6DF" x="10" y="10" width="8" height="8"></rect>
                    <rect id="Rectangle-Copy-25" fill="#1193E4" x="10" y="20" width="8" height="8"></rect>
                    <rect id="Rectangle-Copy-32" fill="#64FCEB" x="0" y="10" width="8" height="8"></rect>
                </g>
            </g>
        </g>
    </g>
</svg>