<?xml version="1.0" encoding="UTF-8"?>
<svg width="326px" height="28px" viewBox="0 0 326 28" version="1.1" xmlns="http://www.w3.org/2000/svg" xmlns:xlink="http://www.w3.org/1999/xlink">
    <title>pea-logo</title>
    <g id="Current-Version" stroke="none" stroke-width="1" fill="none" fill-rule="evenodd">
        <g id="PatientList-Dark" transform="translate(-15.000000, -10.000000)">
            <g id="pea-logo" transform="translate(15.000000, 10.000000)">
                <path d="M42.361252,21.7299578 L42.361252,17.07173 L45.3961439,17.07173 C48.8581688,17.07173 51.308563,14.8438819 51.308563,11.6708861 C51.308563,8.4978903 48.8581688,6.27004219 45.3961439,6.27004219 L38,6.27004219 L38,21.7299578 L42.361252,21.7299578 Z M45.036453,13.1111111 L42.361252,13.1111111 L42.361252,10.230661 L45.036453,10.230661 C46.0705644,10.230661 46.8124268,10.838256 46.8124268,11.6708861 C46.8124268,12.5035162 46.0705644,13.1111111 45.036453,13.1111111 Z M55.3326048,21.7299578 L56.1194286,19.6596343 L61.4923113,19.6596343 L62.2791351,21.7299578 L67.2024042,21.7299578 L61.2675045,6.27004219 L56.3442354,6.27004219 L50.4093357,21.7299578 L55.3326048,21.7299578 Z M60.2558739,16.4416315 L57.3558661,16.4416315 L58.8171103,12.6835443 L60.2558739,16.4416315 Z M75.1156038,21.7299578 L75.1156038,10.1631505 L79.679182,10.1631505 L79.679182,6.27004219 L66.1907736,6.27004219 L66.1907736,10.1631505 L70.7543517,10.1631505 L70.7543517,21.7299578 L75.1156038,21.7299578 Z M85.9737725,21.7299578 L85.9737725,6.27004219 L81.6125205,6.27004219 L81.6125205,21.7299578 L85.9737725,21.7299578 Z M101.373039,21.7299578 L101.373039,17.8368495 L93.3024744,17.8368495 L93.3024744,15.7890295 L100.653657,15.7890295 L100.653657,11.8959212 L93.3024744,11.8959212 L93.3024744,10.1631505 L101.373039,10.1631505 L101.373039,6.27004219 L88.9412224,6.27004219 L88.9412224,21.7299578 L101.373039,21.7299578 Z M108.431973,21.7299578 L108.431973,13.4486639 L114.456795,21.7299578 L118.818047,21.7299578 L118.818047,6.27004219 L114.456795,6.27004219 L114.456795,14.5513361 L108.431973,6.27004219 L104.07072,6.27004219 L104.07072,21.7299578 L108.431973,21.7299578 Z M129.676216,21.7299578 L129.676216,10.1631505 L134.239794,10.1631505 L134.239794,6.27004219 L120.751386,6.27004219 L120.751386,10.1631505 L125.314964,10.1631505 L125.314964,21.7299578 L129.676216,21.7299578 Z M154.674733,21.7299578 L154.674733,17.8368495 L146.604168,17.8368495 L146.604168,15.7890295 L153.955351,15.7890295 L153.955351,11.8959212 L146.604168,11.8959212 L146.604168,10.1631505 L154.674733,10.1631505 L154.674733,6.27004219 L142.242916,6.27004219 L142.242916,21.7299578 L154.674733,21.7299578 Z M163.127469,21.7299578 C168.522832,21.7299578 172.344548,18.511955 172.344548,13.9887482 C172.344548,9.46554149 168.522832,6.27004219 163.127469,6.27004219 L157.372414,6.27004219 L157.372414,21.7299578 L163.127469,21.7299578 Z M163.84685,17.769339 L161.733666,17.769339 L161.733666,10.230661 L163.84685,10.230661 C166.184841,10.230661 167.848412,11.7834037 167.848412,13.9887482 C167.848412,16.1940928 166.184841,17.769339 163.84685,17.769339 Z M181.943798,22 C184.371712,22 186.732183,20.9873418 188.328312,19.254571 L188.328312,12.6835443 L181.089532,12.6835443 L181.089532,15.9015471 L184.101944,15.9015471 L184.101944,17.4092827 C183.450004,17.814346 182.708141,18.0393812 181.943798,18.0393812 C179.740692,18.0393812 177.919756,16.2165963 177.919756,13.9887482 C177.919756,11.7834037 179.740692,9.96061885 181.943798,9.96061885 C183.180236,9.96061885 184.349231,10.5457103 185.113574,11.535865 L188.328312,8.72292546 C186.732183,7.01265823 184.371712,6 181.943798,6 C177.267817,6 173.42362,9.60056259 173.42362,13.9887482 C173.42362,18.3994374 177.267817,22 181.943798,22 Z M203.098119,21.7299578 L203.098119,17.8368495 L195.027554,17.8368495 L195.027554,15.7890295 L202.378737,15.7890295 L202.378737,11.8959212 L195.027554,11.8959212 L195.027554,10.1631505 L203.098119,10.1631505 L203.098119,6.27004219 L190.666302,6.27004219 L190.666302,21.7299578 L203.098119,21.7299578 Z M215.529935,21.7299578 L216.316759,19.6596343 L221.689642,19.6596343 L222.476466,21.7299578 L227.399735,21.7299578 L221.464835,6.27004219 L216.541566,6.27004219 L210.606666,21.7299578 L215.529935,21.7299578 Z M220.453204,16.4416315 L217.553196,16.4416315 L219.014441,12.6835443 L220.453204,16.4416315 Z M233.469518,21.7299578 L233.469518,13.4486639 L239.494341,21.7299578 L243.855593,21.7299578 L243.855593,6.27004219 L239.494341,6.27004219 L239.494341,14.5513361 L233.469518,6.27004219 L229.108266,6.27004219 L229.108266,21.7299578 L233.469518,21.7299578 Z M250.487394,21.7299578 L251.274217,19.6596343 L256.6471,19.6596343 L257.433924,21.7299578 L262.357193,21.7299578 L256.422293,6.27004219 L251.499024,6.27004219 L245.564125,21.7299578 L250.487394,21.7299578 Z M255.410663,16.4416315 L252.510655,16.4416315 L253.971899,12.6835443 L255.410663,16.4416315 Z M275.620795,21.7299578 L275.620795,17.8368495 L268.426977,17.8368495 L268.426977,6.27004219 L264.065725,6.27004219 L264.065725,21.7299578 L275.620795,21.7299578 Z M284.72547,21.7299578 L284.72547,16.6441632 L290.637889,6.27004219 L285.849504,6.27004219 L282.544844,12.5485232 L279.42003,6.27004219 L274.429319,6.27004219 L280.364218,16.6441632 L280.364218,21.7299578 L284.72547,21.7299578 Z M297.719304,22 C301.585981,22 304.081336,20.0872011 304.081336,16.8241913 C304.081336,13.8762307 301.833268,12.9085795 298.236359,12.1434599 C296.033253,11.6708861 295.493716,11.4233474 295.493716,10.6357243 C295.493716,10.0506329 296.010772,9.6230661 297.067364,9.6230661 C298.461166,9.6230661 300.034814,10.140647 301.473577,11.1758087 L303.654203,8.092827 C301.945672,6.72011252 299.854968,6 297.179767,6 C293.515416,6 291.087503,8.00281294 291.087503,11.0857947 C291.087503,14.3037975 293.672781,15.1814346 297.022403,15.9465541 C299.158067,16.4416315 299.697604,16.5541491 299.697604,17.2967651 C299.697604,17.9718706 299.068145,18.3769339 297.876668,18.3769339 C296.055733,18.3769339 294.347202,17.7243319 292.773554,16.4866385 L290.34564,19.3895921 C292.30146,21.1223629 294.931699,22 297.719304,22 Z M310.443369,21.7299578 L310.443369,6.27004219 L306.082117,6.27004219 L306.082117,21.7299578 L310.443369,21.7299578 Z M319.637967,22 C323.504644,22 326,20.0872011 326,16.8241913 C326,13.8762307 323.751932,12.9085795 320.155023,12.1434599 C317.951916,11.6708861 317.41238,11.4233474 317.41238,10.6357243 C317.41238,10.0506329 317.929436,9.6230661 318.986028,9.6230661 C320.37983,9.6230661 321.953477,10.140647 323.392241,11.1758087 L325.572867,8.092827 C323.864335,6.72011252 321.773632,6 319.098431,6 C315.43408,6 313.006167,8.00281294 313.006167,11.0857947 C313.006167,14.3037975 315.591445,15.1814346 318.941066,15.9465541 C321.076731,16.4416315 321.616267,16.5541491 321.616267,17.2967651 C321.616267,17.9718706 320.986808,18.3769339 319.795332,18.3769339 C317.974397,18.3769339 316.265865,17.7243319 314.692218,16.4866385 L312.264304,19.3895921 C314.220123,21.1223629 316.850363,22 319.637967,22 Z" id="PATIENTEDGEANALYSIS" fill="#FFFFFF" fill-rule="nonzero"></path>
                <g id="icon">
                    <rect id="Rectangle-Copy-22" fill="#64FCEB" x="10" y="0" width="8" height="8"></rect>
                    <rect id="Rectangle-Copy-21" fill="#1193E4" x="20" y="10" width="8" height="8"></rect>
                    <rect id="Rectangle-Copy-20" fill="#18B6DF" x="10" y="10" width="8" height="8"></rect>
                    <rect id="Rectangle-Copy-25" fill="#1193E4" x="10" y="20" width="8" height="8"></rect>
                    <rect id="Rectangle-Copy-32" fill="#64FCEB" x="0" y="10" width="8" height="8"></rect>
                </g>
            </g>
        </g>
    </g>
</svg>